<?xml version="1.0" encoding="utf-8"?>
<!-- Generator: Adobe Illustrator 18.0.0, SVG Export Plug-In . SVG Version: 6.00 Build 0)  -->
<!DOCTYPE svg PUBLIC "-//W3C//DTD SVG 1.1//EN" "http://www.w3.org/Graphics/SVG/1.1/DTD/svg11.dtd">
<svg version="1.1" id="Layer_1" xmlns="http://www.w3.org/2000/svg" xmlns:xlink="http://www.w3.org/1999/xlink" x="0px" y="0px"
	 viewBox="0 0 1400 980" enable-background="new 0 0 1400 980" xml:space="preserve">
<g>
	<rect fill="#FFFCDF" width="1400" height="980"/>
	<rect y="0" fill="#F3EBB1" width="1400" height="175.8"/>
	<g>
		<g>
			<rect x="13.9" y="320.8" fill="#F3EBB1" width="296" height="600.8"/>
			<rect x="41.9" y="351.2" fill="#D1CB9B" width="239.9" height="540"/>
		</g>
		<g>
			<rect x="372.6" y="320.8" fill="#F3EBB1" width="296" height="600.8"/>
			<rect x="400.7" y="351.2" fill="#D1CB9B" width="239.9" height="540"/>
		</g>
		<g>
			<rect x="731.4" y="320.8" fill="#F3EBB1" width="296" height="600.8"/>
			<rect x="759.4" y="351.2" fill="#D1CB9B" width="239.9" height="540"/>
		</g>
		<g>
			<rect x="1090.1" y="320.8" fill="#F3EBB1" width="296" height="600.8"/>
			<rect x="1118.1" y="351.2" fill="#D1CB9B" width="239.9" height="540"/>
		</g>
	</g>
	<rect y="872" fill="#CB823F" width="1400" height="108"/>
	<path fill="#B97738" d="M310.4,891.8c0,42,174.4,76,389.6,76s389.6-34,389.6-76c0-6.9-4.7-13.5-13.4-19.8H323.7
		C315,878.3,310.4,885,310.4,891.8z"/>
	<g>
		<path fill="#EBA16B" d="M777.3,437.4c-13.5-27.1-9.7-117.9-9.7-117.9l-63.8,1l-63.8,0.9c0,0,4.3,88.4-9.2,115.4
			c-13.5,27.1-32.5,29.7-32.5,29.7l0.9,39.7l104.6,65.8l104.6-65.8l0.9-39.7C809.4,466.6,790.9,464.4,777.3,437.4z"/>
		<path fill="#FAAD7A" d="M706.9,60.9c-2.1-0.1-4.2-0.1-6.2,0C577.1,67.3,579.2,172.5,579.2,189c0,16.6,5.1,120.7,25.9,163.4
			c12.6,25.9,47.6,51.9,68.8,60.7c15.4,6.4,45.5,5.9,60.9-0.5c21.2-8.8,58.6-38.2,71.2-64.2c20.8-42.7,22.5-142.8,22.5-159.4
			C828.5,172.5,830.5,67.3,706.9,60.9z"/>
		<path fill="#F4A671" d="M741.1,90.3c-34.1-1.6-69.6-0.5-100.3,14.4c-9,4.4-17.5,9.9-25.8,15.5c-11.4,7.8-23.2,16.7-31.3,27.6
			c-4.8,19.2-4.6,35.5-4.6,41.2c0,0.1,0,0.3,0,0.4c1.7,1.6,3.8,2.6,6.2,2.9c4.8,0.6,9.3-2,13.2-4.8c11.5-8.3,20.8-19.7,26.7-32.6
			c5.9,3.6,11.7,7.3,18.1,10.1c23.5,10.2,50.2,7,75.9,7.2c25.6,0.2,54.2,5.7,68.8,26.7c7.4,10.6,10,23.7,12.1,36.4
			c5,30.6,7.8,62.2,1,92.4c-6.8,30.2-24.4,59.2-51.8,73.8c-8.8,4.7-18.8,7.8-28.7,6.5c-5.2-0.7-10.2-2.6-15.3-3.3
			c-13-1.7-27,4.5-39.6,4.6c2.9,1.5,5.6,2.8,8.2,3.9c15.4,6.4,45.5,5.9,60.9-0.5c21.2-8.8,58.6-38.2,71.2-64.2
			c20.8-42.7,22.5-142.8,22.5-159.4c0-10.2,0.8-54-27.6-87.7C782.2,93.2,761.5,91.3,741.1,90.3z"/>
		<path fill="#EFA470" d="M710.5,329.3c1.6,0,3.3,0,4.7-0.8c3.2-1.9,2.9-6.6,1.9-10.3c-2.4-9.3-6.1-18.3-7.1-27.9
			c-1.3-11.9,2.2-23.3,6-34.5c1,9-1.9,18.2-1.1,27.2c0.4,3.8,1.4,7.6,2.4,11.3c0.5,2,2.1,3.6,2.9,5.6c2,5.6,4,11.1,6.1,16.7
			c0.8,2.3,1.7,4.8,1.1,7.1c-1.1,4.2-8.3,8.1-11.6,10.4c-9.3,6.5-13.6-4.9-21.8-4.9C699.4,329.3,704.9,329.3,710.5,329.3z"/>
		<path fill="#D64325" d="M740.9,346.6h-71.9c-1.5,0-2.4,1.8-1.5,3c5.2,6.9,18.3,23.4,38.3,23.4c19.7,0,32.9-16.8,36.7-23.6
			C743.3,348.2,742.4,346.6,740.9,346.6z"/>
		<path fill="#FFFFFF" d="M737.2,346.6h-64.5c0.4,1.3,1.7,4.2,5.6,6.1c5,2.5,44.4,2.7,51.1,0.8C734.3,352.2,736,349.3,737.2,346.6z"
			/>
		<path fill="#A2BFCF" d="M1038.4,831.6l-84.2-305.5c-7.9-29.7-18.1-43.9-44.4-50.4l-109.2-23.3c-22.5,46.5-82.3,66.2-96.7,69.5
			c-14.5-3.3-74.2-23-96.7-69.5l-108.8,23.3c-26.3,6.5-35.7,23.2-44.4,50.4l-92,303.8c-7,38.8,20.6,75,57.3,75h284.8h276.7
			C1016.8,904.9,1044.3,870,1038.4,831.6z"/>
		<path fill="#36353B" d="M704.1,904.9h193.7V653.4l-22.7-185l-3.4-0.8l-53.3-11.8c-2.1,8.8-23,186-115.1,254.4
			C612,642.3,593.6,466.7,590.9,455.4l-59.2,13.2L509,653.4v251.5H704.1z"/>
		<g>
			<path fill="#ADADAD" d="M767,372.7l69.8-12.7c9-1.6,15.6-9.5,15.5-18.7l-0.4-46.5l7.2-0.1l0.4,46.5c0.1,12.6-8.9,23.5-21.4,25.8
				l-69.8,12.7c-1.9,0.4-3.8-0.9-4.2-2.9C763.8,374.9,765.1,373.1,767,372.7z"/>
			<polygon fill="#15161B" points="850.2,319.6 860.8,319.5 860.4,262.3 849.9,262.3 			"/>
			
				<ellipse transform="matrix(-0.9892 0.1466 -0.1466 -0.9892 1551.0145 644.5394)" fill="#15161B" cx="751.8" cy="379.4" rx="18.8" ry="14.6"/>
		</g>
		<g>
			<g>
				<path fill="#26252B" d="M671.6,260.3c0,0-6.9-12-15.9-12.3c-7.5-0.3-27.2,0.4-33.5,0.6c-1.3,0.1-2.6,0.4-3.8,1.1l-8.4,4.8
					c0,0,6.5,8,16.3,13c7.8,4,24.7,2.6,31.3,1.8c1.9-0.2,3.7-0.9,5.2-1.9C665.3,265.9,668.9,263.2,671.6,260.3z"/>
				<path fill="#FFFFFF" d="M668.2,257.6c0,0-0.3,2.5,0.3,3.3c0,0,0.3,3.6-7.3,6.4c-7.6,2.8-24.1,3.3-30.2,0.4
					c-6.1-2.8-16.6-12.1-16.6-12.1s4.5-4.3,7.6-4.9c3.1-0.6,30.5-1.7,34.3-0.9S664.6,252.4,668.2,257.6z"/>
				<path fill="#17181D" d="M636.3,249.3c-1.3,2-2.1,4.4-2.1,7c0,7,5.7,12.7,12.7,12.7c7,0,12.7-5.7,12.7-12.7c0-2.5-0.7-4.8-2-6.7
					c-0.4-0.1-0.8-0.2-1.3-0.3C654.2,248.8,644.8,249,636.3,249.3z"/>
				<circle fill="#030309" cx="646.5" cy="256.1" r="6.1"/>
				<circle fill="#FFFFFF" cx="652.9" cy="253.2" r="1.7"/>
				<circle fill="#FFFFFF" cx="653.6" cy="256.5" r="0.9"/>
			</g>
			<polygon fill="#312124" points="680.8,226.6 668,223.2 607.4,230 598.4,235.7 606.8,220 663.3,208.8 678.2,216.9 			"/>
		</g>
		<g>
			<g>
				<path fill="#26252B" d="M735.8,260.3c0,0,6.9-12,15.9-12.3c7.5-0.3,27.2,0.4,33.5,0.6c1.3,0.1,2.6,0.4,3.8,1.1l8.4,4.8
					c0,0-6.5,8-16.3,13c-7.8,4-24.7,2.6-31.3,1.8c-1.9-0.2-3.7-0.9-5.2-1.9C742.2,265.9,738.5,263.2,735.8,260.3z"/>
				<path fill="#FFFFFF" d="M739.2,257.6c0,0,0.3,2.5-0.3,3.3c0,0-0.3,3.6,7.3,6.4c7.6,2.8,24.1,3.3,30.2,0.4
					c6.1-2.8,16.6-12.1,16.6-12.1s-4.5-4.3-7.6-4.9c-3.1-0.6-30.5-1.7-34.3-0.9S742.9,252.4,739.2,257.6z"/>
				<path fill="#17181D" d="M771.2,249.3c1.3,2,2.1,4.4,2.1,7c0,7-5.7,12.7-12.7,12.7c-7,0-12.7-5.7-12.7-12.7c0-2.5,0.7-4.8,2-6.7
					c0.4-0.1,0.8-0.2,1.3-0.3C753.2,248.8,762.7,249,771.2,249.3z"/>
				<circle fill="#030309" cx="760.9" cy="256.1" r="6.1"/>
				<circle fill="#FFFFFF" cx="767.1" cy="252.8" r="1.7"/>
				<circle fill="#FFFFFF" cx="767.8" cy="256.4" r="0.9"/>
			</g>
			<polygon fill="#312124" points="727.9,229.5 740.2,225.6 799.4,228.8 808.4,233.8 799.4,219.3 743.9,211.7 729.9,220.1 			"/>
		</g>
		<path fill="#312124" d="M584.3,264.4l3-17.7l4.7-55.5c0,0,22.3-29.4,27-38.1c4.7-8.7,8.8-17.4,8.8-17.4s14.8,10,28.3,15.4
			l-7.4-9.4c0,0,37.8,21.4,86.3,27.4l-17.5-16.7c0,0,31,14,51.3,14l-8.1-11.4c0,0,14.8,1.3,23.6,8c8.8,6.7,20.2,22.7,26.3,30.1
			l6.1,49.5l6.7,23.4c0,0,7.4-20.7,10.8-62.2c3.4-41.5,1.3-76.9,1.3-76.9l-11.5-20.1l10.1,0.7c0,0-14.2-18.1-25.6-24.1l12.1-0.7
			c0,0-33.7-20.1-50.6-22.7l14.2-2.7c0,0-53.3-12.7-98.5-9.4s-54.4,3.3-54.4,3.3l-14.8,14c0,0-16.9,0.7-27.6,13.4
			c-10.8,12.7-12.8,30.8-12.8,30.8l4-2l-10.1,33.8l-0.9,32.4L584.3,264.4z"/>
		<path fill="#3D2E32" d="M596.3,159.6c0-5.8,0-11.7,0-17.5c-3.8,9.8-9.5,18.8-16.7,26.4c7.5-15.4,13.3-31.5,17.5-48.1
			c0.7,3.4,1.4,6.7,2.1,10.1c3.2-13.5,6.3-26.9,9.5-40.4c0.1,5.6,0.5,11.1,1.2,16.6c3.5-6.2,5.5-13.3,5.7-20.4
			c1.1,7.3,1.8,14.7,2,22.1c0.1,4.1,0.1,8.2-0.8,12.1c-1,4.3-3,8.2-4.9,12.1C607.1,141.9,602.4,151.2,596.3,159.6z"/>
		<path fill="#3D2E32" d="M665.4,117.6c19.8,16.3,44.8,26.3,70.4,28.2c-7.7-7.6-15.4-15.1-23.2-22.7c13.9,9.9,32.3,9.2,48.9,13
			c18.2,4.2,34.5,14.1,50.1,24.3c-13.7-24.2-38.8-39.5-63.9-51.4c13.7-0.8,26.9,4.7,39.5,10.2c-11.4-14.9-31-20.2-49.2-24.6
			c-8.1-2-16.2-3.9-24.3-5.9c6.4,11.2,15.8,20.6,26.9,27c-12.9-5.5-25.9-11-38.8-16.4c-7.6-3.2-15.5-6.6-21.1-12.8
			c4.3,7.7,9.9,14.6,16.6,20.3c-20.6-5.4-40.2-14.2-58-25.9c4.2,9.2,10.9,17.2,19.1,23.1c-14.2-3.7-27.6-10.5-39-19.8
			c13,24.3,35.8,43.1,62.1,51.3C674.6,131.1,669,124.8,665.4,117.6z"/>
		<polygon fill="#C9EBFC" points="633.1,430.1 703.9,521.9 648.2,568.2 607.2,452.5 		"/>
		<polygon fill="#C9EBFC" points="774.6,430.1 703.9,521.9 759.6,568.2 800.6,452.5 		"/>
		<polygon fill="#26252B" points="594.1,238 581.9,242.8 582.3,254.4 594.7,251 		"/>
		<polygon fill="#26252B" points="812.2,238 824.4,242.8 824,254.4 811.7,251 		"/>
		<path opacity="0.56" fill="#FFFFFF" d="M603.7,242.1c0,0,9.2-8.1,28.5-7.5c19.3,0.6,50.9,5.3,50.9,5.3s9.2,3.9,9.7,12.3
			c0.6,8.5-0.7,26.1-5.5,32c-4.8,5.9-5.5,16-35.8,19.7c-30.3,3.7-42.3-16.5-42.3-16.5S598,262.2,603.7,242.1z"/>
		<path opacity="0.56" fill="#FFFFFF" d="M804,242.1c0,0-9.2-8.1-28.5-7.5c-19.3,0.6-50.9,5.3-50.9,5.3s-9.2,3.9-9.7,12.3
			c-0.6,8.5,0.7,26.1,5.5,32c4.8,5.9,5.5,16,35.8,19.7c30.3,3.7,42.3-16.5,42.3-16.5S809.7,262.2,804,242.1z"/>
		<path fill="#26252B" d="M766.8,304.5c-4.9,0.2-13.4,0-19-1c-32.2-5.5-32.6-26.7-34.2-35.6c-0.1-0.6-0.2-1.1-0.3-1.5
			c-1.4-7.2-6.9-9.4-9.6-9.6c0,0-0.1,0-0.1,0c0,0-0.1,0-0.1,0c-2.7,0.2-8.2,2.4-9.6,9.6c-0.1,0.4-0.2,0.9-0.3,1.5
			c-1.6,8.8-3.1,30.5-35.3,35.9c-5.5,0.9-12.9,0.8-17.8,0.6c-28.2-1.3-34.5-19.6-35.4-23.1c-0.4-1.6-0.8-3.2-1.3-4.9
			c-2.5-9.7-5-19.8-10.4-24.6c-0.7-0.7-1.1-1.6-1.1-2.5c0.2-3.1,0.5-6.2,0.7-9.3c0.1-1.5,1.3-2.7,2.8-2.8c2.9-0.3,5.8-0.5,8.8-0.8
			c0.1,0,0.2-0.1,0.2-0.1c0.1-0.1,10.6-4,27-4.5c3.2-0.1,7-0.1,11.2,0.1c15.9,0.7,35.2,3,41.5,4.4c3,0.7,5.4,1.8,7.8,2.8
			c3,1.4,5.8,2.6,9.5,2.6c0.6,0,1.3,0,1.9-0.1c0.6,0.1,1.3,0.1,1.9,0.1c3.6,0,6.5-1.3,9.5-2.6c2.3-1.1,4.7-2.1,7.8-2.8
			c6.3-1.4,25.6-3.6,41.5-4.4c4.3-0.2,8-0.2,11.2-0.1c16.4,0.5,26.9,4.5,27,4.5c0.1,0,0.2,0.1,0.2,0.1c2.9,0.3,5.8,0.6,8.8,0.8
			c1.5,0.1,2.7,1.3,2.8,2.8c0.2,3.1,0.5,6.2,0.7,9.3c0.1,1-0.3,1.9-1.1,2.5c-5.5,4.8-8,14.8-10.4,24.6c-0.4,1.7-0.8,3.3-1.3,4.9
			C801.3,284.9,794.9,303.2,766.8,304.5C766.8,304.5,766.8,304.5,766.8,304.5z M761.4,237.8c-11.2,0.5-20.6,1.8-20.7,1.8
			c-0.7,0.1-17.6,2.2-22.3,10.2c-4.1,6.9-1.8,18.9,0.3,27.3c0,0.2,0.1,0.3,0.1,0.5c2.6,10.4,11.1,17.9,25.5,21.8
			c7.6,2.1,14.8,3,21.4,2.7c12.1-0.5,21.7-4.9,28.4-12.8c8.3-9.9,9.1-27.3,8.9-36.7c-0.1-4.1-2.4-8-5.9-10
			C790.2,238.6,778.2,237.1,761.4,237.8z M645.8,237.8c-16.8-0.7-28.8,0.8-35.8,4.8c-3.6,2.1-5.8,5.9-5.9,10
			c-0.2,9.5,0.6,26.9,8.9,36.7c6.7,7.9,16.3,12.3,28.4,12.8c6.6,0.3,13.9-0.6,21.4-2.7c14.4-4,22.9-11.4,25.5-21.8
			c0-0.2,0.1-0.3,0.1-0.5c2.1-8.4,4.4-20.4,0.3-27.3c-4.7-8-21.6-10.1-22.3-10.2C666.5,239.6,657.1,238.3,645.8,237.8z"/>
		<path fill="#414042" d="M849,143.1c-7.2-25.8-24.9-45.9-52.6-59.6c-24.4-12.1-55.9-18.7-92.8-19.8c-36.9,1-68.3,7.7-92.8,19.8
			c-27.7,13.7-45.4,33.8-52.6,59.6c-9.7,34.8,0.8,96.1,1.2,98.6l12.1-2.3c-0.1-0.6-10.4-60.9-1.5-92.7c6.2-22.1,21.7-39.5,46-51.6
			c22.6-11.2,52.8-17.6,87.5-18.5c34.7,1,64.9,7.4,87.5,18.5c24.4,12.1,39.9,29.4,46,51.6c8.9,31.8-1.4,92.1-1.5,92.7l12.1,2.3
			C848.2,239.2,858.7,177.9,849,143.1z"/>
		<g>
			<path fill="#26252B" d="M563.8,293.8l-20.5-5.9c-3.3-1-5.8-3.9-6.1-7.3l-3.3-30.4c-0.4-3.5,1.4-6.8,4.4-8.5l18.7-10.1
				L563.8,293.8z"/>
			<path fill="#363637" d="M567.1,210.9L567.1,210.9c-9.7,1-16.8,9.8-15.7,19.5l7.1,65.7c1,9.7,9.8,16.8,19.5,15.7l0,0
				c9.7-1,16.8-9.8,15.7-19.5l-7.1-65.7C585.6,216.9,576.9,209.9,567.1,210.9z"/>
			<path fill="#26252B" d="M568.9,210.8c-0.6,0-1.2,0-1.7,0.1l0,0c-1.1,0.1-2.1,0.3-3.1,0.6l10.8,100.4c1,0.1,2.1,0.1,3.1,0l0,0
				c0.6-0.1,1.2-0.2,1.7-0.3L568.9,210.8z"/>
		</g>
		<g>
			<path fill="#26252B" d="M843.8,293.8l20.5-5.9c3.3-1,5.8-3.9,6.1-7.3l3.3-30.4c0.4-3.5-1.4-6.8-4.4-8.5l-18.7-10.1L843.8,293.8z"
				/>
			<path fill="#363637" d="M840.4,210.9L840.4,210.9c9.7,1,16.8,9.8,15.7,19.5l-7.1,65.7c-1,9.7-9.8,16.8-19.5,15.7l0,0
				c-9.7-1-16.8-9.8-15.7-19.5l7.1-65.7C822,216.9,830.7,209.9,840.4,210.9z"/>
			<path fill="#26252B" d="M838.7,210.8c0.6,0,1.2,0,1.7,0.1l0,0c1.1,0.1,2.1,0.3,3.1,0.6l-10.8,100.4c-1,0.1-2.1,0.1-3.1,0l0,0
				c-0.6-0.1-1.2-0.2-1.7-0.3L838.7,210.8z"/>
		</g>
		<polygon fill="#EF4423" points="717.5,555 727.7,540.9 703.9,521.9 680.1,540.9 690.3,555 664.4,904.9 703.9,904.9 743.3,904.9 		
			"/>
		<path fill="#EFA470" d="M687.6,379.4c0,0,14.8,11.7,35.7,0C723.3,379.4,704.2,384.5,687.6,379.4z"/>
		<path fill="#FFFFFF" d="M685.6,272.8c0,0-0.3,23-33.3,25.9C652.3,298.7,678.4,293.3,685.6,272.8z"/>
		<path fill="#FFFFFF" d="M798.6,272.8c0,0-0.3,23-33.3,25.9C765.3,298.7,791.4,293.3,798.6,272.8z"/>
		<g>
			<path fill="#AFB1B3" d="M983.9,593.3H430.7c-4,0-7.6,3.3-7.4,7.2l13.3,319.9c0.2,3.7,3.2,6.7,7,6.7h521c3.7,0,6.8-2.9,7-6.6
				l19.7-319.2C991.5,597.4,988,593.3,983.9,593.3z"/>
			<path fill="#B5B6B8" d="M972.4,924H442.2c-1.2,0-2.2,1-2.2,2.2v9.8c0,1.2,1,2.2,2.2,2.2h530.1c1.2,0,2.2-1,2.2-2.2v-9.8
				C974.6,925,973.6,924,972.4,924z"/>
			<g>
				<path fill="#ECECEC" d="M983.9,600.9H430.7c-4,0-7.1,3.2-7,7.1l12.9,312.6c0.2,3.7,3.2,6.6,7,6.6h521c3.7,0,6.8-2.8,7-6.4
					l19.3-312.6C991.1,604.2,987.9,600.9,983.9,600.9z"/>
				<path fill="#DDDEDF" d="M985.9,606.1c-0.3-0.3-1-0.9-2-0.9h-33c-49.1,78.2-198.6,268.4-510.4,307.1l0.3,8.1
					c0.1,1.4,1.2,2.4,2.7,2.4h521c1.4,0,2.6-1,2.7-2.4l19.3-312.6C986.7,607,986.2,606.4,985.9,606.1z"/>
			</g>
			<circle fill="#FFFFFF" cx="707.3" cy="731.3" r="29"/>
		</g>
	</g>
</g>
</svg>
