<svg xmlns="http://www.w3.org/2000/svg" viewBox="0 0 64 64"><defs><style>.cls-1{fill:#f7931e;}</style></defs><g id="Layer_13" data-name="Layer 13"><path class="cls-1" d="M49.14,22.36,46.54,25a1.39,1.39,0,0,1-2-2l4.78-4.77c3.07-3.25-1.53-7.79-4.79-4.79l-2,2.05a1.39,1.39,0,0,1-2-2L44.14,10a3.38,3.38,0,1,0-4.78-4.77L26.43,18.12a1,1,0,0,0,1.42,1.41L40.78,6.6a1.38,1.38,0,1,1,1.94,2l-3.56,3.57a3.38,3.38,0,0,0,4.78,4.78l2.05-2a1.38,1.38,0,1,1,1.95,1.95l-4.77,4.78a3.4,3.4,0,0,0,2.39,5.77,3.36,3.36,0,0,0,2.39-1l2.6-2.6a1.38,1.38,0,1,1,2,1.95L43.27,35a1,1,0,0,0,1.41,1.42l9.24-9.23A3.38,3.38,0,0,0,49.14,22.36Z"/><path class="cls-1" d="M60,16.26A3.38,3.38,0,0,0,55.23,21,3.38,3.38,0,0,0,60,16.26ZM58.6,19.63a1.38,1.38,0,0,1-2-2A1.38,1.38,0,0,1,58.6,19.63Z"/><path d="M46.67,43.42l-2.36-2.36a4.25,4.25,0,0,0,.28-6.21L28,18.21a4.23,4.23,0,0,0-5.93,0L19.28,21a4.21,4.21,0,0,0,0,5.93L35.92,43.52a4.21,4.21,0,0,0,5.93,0l1-1.05,1.66,1.66L39,49.71,22.06,40.35a1,1,0,0,0-1.19.17l-5.71,5.71a1,1,0,0,0,1.41,1.41l5.18-5.17,16.91,9.35a1,1,0,0,0,1.19-.17l6.82-6.82A1,1,0,0,0,46.67,43.42ZM40.43,42.1a2.17,2.17,0,0,1-3.09,0L20.7,25.46a2.17,2.17,0,0,1,0-3.09l2.74-2.74a2.19,2.19,0,0,1,3.09,0L43.17,36.27a2.19,2.19,0,0,1,0,3.09l-1,1Z"/><path class="cls-1" d="M15.54,45.2a2.31,2.31,0,0,0-3.19,0l-8.7,8.69a2.28,2.28,0,0,0,0,3.19c1.15,1,2.29,2.81,3.66,2.73a2.26,2.26,0,0,0,1.6-.67l8.69-8.69a2.26,2.26,0,0,0,0-3.19ZM16.18,49,7.49,57.73a.22.22,0,0,1-.36,0L5.07,55.67a.25.25,0,0,1,0-.36l8.69-8.69a.24.24,0,0,1,.36,0l2.06,2.06A.25.25,0,0,1,16.18,49Z"/></g></svg>