<?xml version="1.0" encoding="utf-8"?>
<!-- Generator: Adobe Illustrator 20.1.0, SVG Export Plug-In . SVG Version: 6.00 Build 0)  -->
<svg version="1.1" xmlns="http://www.w3.org/2000/svg" xmlns:xlink="http://www.w3.org/1999/xlink" x="0px" y="0px"
	 viewBox="0 0 2800 2800" style="enable-background:new 0 0 2800 2800;" xml:space="preserve">
<style type="text/css">
	.st0{fill:#49B3D4;}
	.st1{clip-path:url(#SVGID_2_);}
	.st2{fill:#D7ECF5;}
	.st3{fill:#F7FAF8;}
	.st4{fill:#294D99;}
	.st5{fill:#22284F;}
	.st6{fill:#FAFBFB;}
	.st7{fill:#4A5270;}
	.st8{fill:#3E57A1;}
	.st9{fill:#B0B9DC;}
	.st10{fill:#6570B2;}
	.st11{fill:#B7E0ED;}
	.st12{fill:#D0E6F3;}
	.st13{fill:#7DCBDF;}
</style>
<g id="Capa_2">
	<g>
		<g>
			
				<rect x="-64" y="-64" transform="matrix(-1.836970e-16 1 -1 -1.836970e-16 2800 2.273737e-13)" class="st0" width="2928" height="2928"/>
		</g>
	</g>
</g>
<g id="Capa_1">
	<g>
		<defs>
			
				<rect id="SVGID_1_" x="-64" y="-64" transform="matrix(-1.836970e-16 1 -1 -1.836970e-16 2800 2.273737e-13)" width="2928" height="2928"/>
		</defs>
		<clipPath id="SVGID_2_">
			<use xlink:href="#SVGID_1_"  style="overflow:visible;"/>
		</clipPath>
		<g class="st1">
			<g>
				<path class="st2" d="M1230.2,899.8l-51.1,23.7c-33.9,15.7-74.4,0.8-90.1-33.1L932.1,548.2c-22.2-47.9-1.1-105.3,46.8-127.5l0,0
					c47.9-22.2,105.3-1.1,127.5,46.8l156.9,342.2C1278.9,843.6,1264.1,884.1,1230.2,899.8z"/>
			</g>
			<g>
				
					<rect x="1428.6" y="1729.7" transform="matrix(0.9074 -0.4202 0.4202 0.9074 -728.9429 918.0638)" class="st2" width="581.1" height="767.4"/>
			</g>
			<g>
				
					<rect x="1446.7" y="1955.8" transform="matrix(0.9074 -0.4202 0.4202 0.9074 -779.1396 956.2659)" class="st3" width="668.1" height="581.2"/>
			</g>
			<g>
				
					<rect x="1556.2" y="2040.7" transform="matrix(0.9074 -0.4202 0.4202 0.9074 -903.4387 1050.8638)" class="st4" width="754.1" height="1070.3"/>
			</g>
			<g>
				<path class="st2" d="M1809.7,1787.5L1412,1971.7c-80.9,37.4-177.6,1.9-215.1-78.9l-194.3-419.5c-37.4-80.9-1.9-177.6,78.9-215.1
					l397.6-184.1c80.9-37.4,177.6-1.9,215.1,78.9l194.3,419.5C1926,1653.3,1890.5,1750.1,1809.7,1787.5z"/>
			</g>
			<g>
				<g>
					<path class="st5" d="M1623.1,1667.2H1113c-57.2,0-104-46.8-104-104V515.9c0-57.2,46.8-104,104-104h510.1
						c57.2,0,104,46.8,104,104v1047.3C1727.1,1620.4,1680.3,1667.2,1623.1,1667.2z"/>
				</g>
				<g>
					<rect x="1085" y="595.2" class="st6" width="566.1" height="888.8"/>
				</g>
				<g>
					<path class="st7" d="M1446.5,1628.9h-156.9c-17.1,0-31-13.9-31-31v-44.6c0-17.1,13.9-31,31-31h156.9c17,0,31,13.9,31,31v44.6
						C1477.5,1614.9,1463.6,1628.9,1446.5,1628.9z"/>
				</g>
				<g>
					<path class="st7" d="M1416.6,513.7h-170.8c-8.1,0-14.7-6.6-14.7-14.7v0c0-8.1,6.6-14.7,14.7-14.7h170.8
						c8.1,0,14.7,6.6,14.7,14.7v0C1431.3,507.1,1424.7,513.7,1416.6,513.7z"/>
				</g>
				<g>
					<circle class="st7" cx="1489.1" cy="499" r="16"/>
				</g>
				<g>
					<path class="st8" d="M1718.3,1086.3h-432.7V705.6h432.7c48.5,0,87.8,39.3,87.8,87.8v205.2
						C1806.1,1047,1766.8,1086.3,1718.3,1086.3z"/>
				</g>
				<g>
					<rect x="1285.7" y="915.6" class="st9" width="520.4" height="81.1"/>
				</g>
				<g>
					<circle class="st10" cx="1595.6" cy="807.3" r="45.8"/>
				</g>
				<g>
					<circle class="st11" cx="1668.9" cy="807.3" r="45.8"/>
				</g>
				<g>
					<circle class="st11" cx="1368.1" cy="1302.4" r="82.4"/>
				</g>
				<g>
					<circle class="st12" cx="1368.1" cy="1302.4" r="44.2"/>
				</g>
				<g>
					<rect x="1126.7" y="392.5" class="st7" width="53.9" height="19.4"/>
				</g>
				<g>
					<rect x="1201.1" y="392.5" class="st7" width="53.9" height="19.4"/>
				</g>
			</g>
			<g>
				
					<ellipse transform="matrix(0.1546 -0.988 0.988 0.1546 -213.156 3117.0229)" class="st2" cx="1714.8" cy="1683.1" rx="244.1" ry="195.1"/>
			</g>
			<g>
				<path class="st2" d="M1894.9,995.8L1894.9,995.8c-97.7,0-176.8,79.2-176.8,176.8v488.7h194.7v-647.6
					C1912.8,1003.8,1904.8,995.8,1894.9,995.8z"/>
			</g>
			<g>
				<path class="st2" d="M1096.6,1484.4l-25.4,11.8c-40.9,19-89.9,1-108.9-40l-80.9-174.6c-19-40.9-1-89.9,40-108.9l25.4-11.8
					c40.9-19,89.9-1,108.9,40l80.9,174.6C1155.5,1416.4,1137.5,1465.4,1096.6,1484.4z"/>
			</g>
			<g>
				<path class="st2" d="M1074.6,1278.4l-25.4,11.8c-40.9,19-89.9,1-108.9-40l-80.9-174.6c-19-40.9-1-89.9,40-108.9l25.4-11.8
					c40.9-19,89.9-1,108.9,40l80.9,174.6C1133.5,1210.5,1115.5,1259.4,1074.6,1278.4z"/>
			</g>
			<g>
				<path class="st2" d="M1118.7,1051.8l-25.4,11.8c-40.9,19-89.9,1-108.9-40L903.5,849c-19-40.9-1-89.9,40-108.9l25.4-11.8
					c40.9-19,89.9-1,108.9,40l80.9,174.6C1177.6,983.8,1159.6,1032.8,1118.7,1051.8z"/>
			</g>
		</g>
		<g class="st1">
			<g>
				<path class="st13" d="M2392.9,505.4h-243.9c-2.4,0-4.5-1.7-4.9-4.1l-20-104.4c-0.3-1.5,0.1-3,1.1-4.1c0.9-1.1,2.4-1.8,3.9-1.8
					h283.9c1.5,0,2.9,0.7,3.9,1.8c1,1.1,1.3,2.7,1.1,4.1l-20,104.4C2397.4,503.6,2395.3,505.4,2392.9,505.4z M2153.2,495.4h235.6
					l18.1-94.4h-271.8L2153.2,495.4z"/>
			</g>
			<g>
				<path class="st13" d="M2174.7,476.7c-2.8,0-5-2.2-5-5v-56.1c0-2.8,2.2-5,5-5s5,2.2,5,5v56.1
					C2179.7,474.5,2177.5,476.7,2174.7,476.7z"/>
			</g>
			<g>
				<path class="st13" d="M2213.2,476.7c-2.8,0-5-2.2-5-5v-56.1c0-2.8,2.2-5,5-5s5,2.2,5,5v56.1
					C2218.2,474.5,2216,476.7,2213.2,476.7z"/>
			</g>
			<g>
				<path class="st13" d="M2251.7,476.7c-2.8,0-5-2.2-5-5v-56.1c0-2.8,2.2-5,5-5s5,2.2,5,5v56.1
					C2256.7,474.5,2254.5,476.7,2251.7,476.7z"/>
			</g>
			<g>
				<path class="st13" d="M2290.3,476.7c-2.8,0-5-2.2-5-5v-56.1c0-2.8,2.2-5,5-5s5,2.2,5,5v56.1
					C2295.3,474.5,2293,476.7,2290.3,476.7z"/>
			</g>
			<g>
				<path class="st13" d="M2328.8,476.7c-2.8,0-5-2.2-5-5v-56.1c0-2.8,2.2-5,5-5s5,2.2,5,5v56.1
					C2333.8,474.5,2331.5,476.7,2328.8,476.7z"/>
			</g>
			<g>
				<path class="st13" d="M2367.3,476.7c-2.8,0-5-2.2-5-5v-56.1c0-2.8,2.2-5,5-5s5,2.2,5,5v56.1
					C2372.3,474.5,2370,476.7,2367.3,476.7z"/>
			</g>
			<g>
				<path class="st13" d="M2431.8,399.1h-321.6c-9.3,0-17-7.6-17-16.9s7.6-16.9,17-16.9h321.6c9.3,0,17,7.6,17,16.9
					S2441.1,399.1,2431.8,399.1z M2110.2,375.2c-3.8,0-7,3.1-7,6.9s3.1,6.9,7,6.9h321.6c3.8,0,7-3.1,7-6.9s-3.1-6.9-7-6.9H2110.2z"
					/>
			</g>
			<g>
				<path class="st13" d="M2151.7,375.2c-1.4,0-2.8-0.6-3.8-1.8c-1.8-2.1-1.5-5.3,0.6-7l100-85.4c2.1-1.8,5.3-1.5,7,0.6
					c1.8,2.1,1.5,5.3-0.6,7L2155,374C2154,374.8,2152.9,375.2,2151.7,375.2z"/>
			</g>
			<g>
				<path class="st13" d="M2390.3,375.2c-1.1,0-2.3-0.4-3.2-1.2l-100-85.4c-2.1-1.8-2.3-4.9-0.6-7c1.8-2.1,5-2.3,7-0.6l100,85.4
					c2.1,1.8,2.3,4.9,0.6,7C2393.1,374.6,2391.7,375.2,2390.3,375.2z"/>
			</g>
		</g>
		<g class="st1">
			<g>
				<path class="st13" d="M658.5,629.7h-214c-21.6,0-39.2-17.6-39.2-39.2V477.2c0-21.6,17.6-39.2,39.2-39.2h214
					c21.6,0,39.2,17.6,39.2,39.2v113.4C697.6,612.1,680.1,629.7,658.5,629.7z M444.4,448c-16.1,0-29.2,13.1-29.2,29.2v113.4
					c0,16.1,13.1,29.2,29.2,29.2h214c16.1,0,29.2-13.1,29.2-29.2V477.2c0-16.1-13.1-29.2-29.2-29.2H444.4z"/>
			</g>
			<g>
				<path class="st13" d="M692.6,596.4H410.3c-2.8,0-5-2.2-5-5V476.3c0-2.8,2.2-5,5-5h282.4c2.8,0,5,2.2,5,5v115.2
					C697.6,594.2,695.4,596.4,692.6,596.4z M415.3,586.4h272.4V481.3H415.3V586.4z"/>
			</g>
			<g>
				<path class="st0" d="M703.2,554.6h-71.4c-5.9,0-10.7-4.8-10.7-10.6v-20.2c0-5.9,4.8-10.7,10.7-10.7h71.4
					c5.9,0,10.6,4.8,10.6,10.7V544C713.9,549.8,709.1,554.6,703.2,554.6z"/>
				<path class="st13" d="M703.2,559.6h-71.4c-8.6,0-15.6-7-15.6-15.6v-20.2c0-8.6,7-15.6,15.6-15.6h71.4c8.6,0,15.6,7,15.6,15.6
					V544C718.9,552.6,711.8,559.6,703.2,559.6z M631.8,518.1c-3.1,0-5.6,2.5-5.6,5.6V544c0,3.1,2.5,5.6,5.6,5.6h71.4
					c3.1,0,5.6-2.5,5.6-5.6v-20.2c0-3.1-2.5-5.6-5.6-5.6H631.8z"/>
			</g>
		</g>
		<g class="st1">
			<g>
				<path class="st13" d="M2331.2,925.2h-274.4c-2.8,0-5-2.2-5-5v-135c0-2.8,2.2-5,5-5h274.4c2.8,0,5,2.2,5,5v135
					C2336.2,923,2334,925.2,2331.2,925.2z M2061.8,915.2h264.4v-125h-264.4V915.2z"/>
			</g>
			<g>
				<path class="st13" d="M2194,882.6c-16.5,0-29.9-13.4-29.9-29.9s13.4-29.9,29.9-29.9c16.5,0,29.9,13.4,29.9,29.9
					S2210.4,882.6,2194,882.6z M2194,832.9c-10.9,0-19.9,8.9-19.9,19.9s8.9,19.9,19.9,19.9s19.9-8.9,19.9-19.9
					S2204.9,832.9,2194,832.9z"/>
			</g>
			<g>
				<path class="st13" d="M2331.2,833.5c-26.6,0-48.3-21.7-48.3-48.3c0-2.8,2.2-5,5-5s5,2.2,5,5c0,21.1,17.2,38.3,38.3,38.3
					c2.8,0,5,2.2,5,5S2334,833.5,2331.2,833.5z"/>
			</g>
			<g>
				<path class="st13" d="M2287.9,925.9c-2.8,0-5-2.2-5-5c0-26.6,21.7-48.3,48.3-48.3c2.8,0,5,2.2,5,5s-2.2,5-5,5
					c-21.1,0-38.3,17.2-38.3,38.3C2292.9,923.6,2290.7,925.9,2287.9,925.9z"/>
			</g>
			<g>
				<path class="st13" d="M2056.8,833.5c-2.8,0-5-2.2-5-5s2.2-5,5-5c21.1,0,38.3-17.2,38.3-38.3c0-2.8,2.2-5,5-5s5,2.2,5,5
					C2105,811.9,2083.4,833.5,2056.8,833.5z"/>
			</g>
			<g>
				<path class="st13" d="M2100,925.9c-2.8,0-5-2.2-5-5c0-21.1-17.2-38.3-38.3-38.3c-2.8,0-5-2.2-5-5s2.2-5,5-5
					c26.6,0,48.3,21.7,48.3,48.3C2105,923.6,2102.8,925.9,2100,925.9z"/>
			</g>
		</g>
		<g class="st1">
			<g>
				<path class="st13" d="M2178.9,1485.5h-44.6c-2.8,0-5-2.2-5-5v-176.9c0-2.8,2.2-5,5-5h44.6c2.8,0,5,2.2,5,5v176.9
					C2183.9,1483.3,2181.7,1485.5,2178.9,1485.5z M2139.3,1475.5h34.6v-166.9h-34.6V1475.5z"/>
			</g>
			<g>
				<path class="st13" d="M2274.1,1485.5h-44.6c-2.8,0-5-2.2-5-5v-118.9c0-2.8,2.2-5,5-5h44.6c2.8,0,5,2.2,5,5v118.9
					C2279.1,1483.3,2276.8,1485.5,2274.1,1485.5z M2234.4,1475.5h34.6v-108.9h-34.6V1475.5z"/>
			</g>
			<g>
				<path class="st13" d="M2369.2,1485.5h-44.6c-2.8,0-5-2.2-5-5v-267.8c0-2.8,2.2-5,5-5h44.6c2.8,0,5,2.2,5,5v267.8
					C2374.2,1483.3,2372,1485.5,2369.2,1485.5z M2329.6,1475.5h34.6v-257.8h-34.6V1475.5z"/>
			</g>
			<g>
				<path class="st13" d="M2397,1485.5h-290.4c-2.8,0-5-2.2-5-5s2.2-5,5-5H2397c2.8,0,5,2.2,5,5S2399.7,1485.5,2397,1485.5z"/>
			</g>
		</g>
		<g class="st1">
			<g>
				<path class="st13" d="M2443.7,2314.4c-38,0-68.9-30.9-68.9-68.9c0-38,30.9-68.9,68.9-68.9s68.9,30.9,68.9,68.9
					C2512.6,2283.5,2481.7,2314.4,2443.7,2314.4z M2443.7,2186.6c-32.5,0-58.9,26.4-58.9,58.9s26.4,58.9,58.9,58.9
					s58.9-26.4,58.9-58.9S2476.2,2186.6,2443.7,2186.6z"/>
			</g>
			<g>
				<path class="st13" d="M2443.7,2284.7c-21.6,0-39.1-17.6-39.1-39.1c0-21.6,17.6-39.1,39.1-39.1s39.1,17.6,39.1,39.1
					C2482.9,2267.1,2465.3,2284.7,2443.7,2284.7z M2443.7,2216.4c-16.1,0-29.1,13.1-29.1,29.1c0,16.1,13.1,29.1,29.1,29.1
					s29.1-13.1,29.1-29.1C2472.9,2229.4,2459.8,2216.4,2443.7,2216.4z"/>
			</g>
		</g>
		<g class="st1">
			<g>
				<path class="st13" d="M484.3,1229.3c-25,0-50-9.5-69-28.5c-38.1-38.1-38.1-100,0-138c18.4-18.4,43-28.6,69-28.6
					c26.1,0,50.6,10.2,69,28.6l0,0l0,0c18.4,18.4,28.6,43,28.6,69c0,26.1-10.2,50.6-28.6,69C534.3,1219.8,509.3,1229.3,484.3,1229.3
					z M484.3,1044.1c-23.4,0-45.4,9.1-62,25.7c-34.2,34.2-34.2,89.7,0,123.9c34.2,34.2,89.7,34.2,123.9,0
					c16.5-16.5,25.7-38.6,25.7-62c0-23.4-9.1-45.4-25.7-62l0,0C529.7,1053.2,507.7,1044.1,484.3,1044.1z"/>
			</g>
			<g>
				<path class="st13" d="M484.3,1202.2c-18.1,0-36.1-6.9-49.8-20.6c-27.5-27.5-27.5-72.2,0-99.7c27.5-27.5,72.2-27.5,99.7,0
					c27.5,27.5,27.5,72.2,0,99.7C520.4,1195.3,502.3,1202.2,484.3,1202.2z M484.3,1071.3c-15.5,0-31,5.9-42.8,17.7
					c-23.6,23.6-23.6,62,0,85.5c23.6,23.6,62,23.6,85.5,0c23.6-23.6,23.6-62,0-85.5C515.3,1077.2,499.8,1071.3,484.3,1071.3z"/>
			</g>
			<g>
				<path class="st13" d="M561.8,1237.3c-1.3,0-2.6-0.5-3.5-1.5l-23-23c-2-2-2-5.1,0-7.1l23-23c2-2,5.1-2,7.1,0l23,23
					c2,2,2,5.1,0,7.1l-23,23C564.4,1236.8,563.2,1237.3,561.8,1237.3z M545.9,1209.3l16,16l16-16l-16-16L545.9,1209.3z"/>
			</g>
			<g>
				<path class="st13" d="M682,1365.1c-9.1,0-18.1-3.4-25-10.3l-87.3-87.3c-6.7-6.7-10.4-15.6-10.4-25s3.7-18.3,10.4-25l0.2-0.2
					c6.7-6.7,15.6-10.4,25-10.4c9.4,0,18.3,3.7,25,10.4l87.3,87.3c6.7,6.7,10.4,15.6,10.4,25s-3.7,18.3-10.4,25l-0.2,0.2
					C700.2,1361.6,691.1,1365.1,682,1365.1z M595,1216.8c-6.5,0-13,2.5-17.9,7.4l-0.2,0.2c-4.8,4.8-7.4,11.2-7.4,17.9
					s2.6,13.2,7.4,17.9l87.3,87.3c9.9,9.9,26,9.9,35.9,0l0.2-0.2c9.9-9.9,9.9-26,0-35.9l-87.3-87.3
					C608,1219.3,601.5,1216.8,595,1216.8z"/>
			</g>
		</g>
		<g class="st1">
			<g>
				<path class="st13" d="M1031.1,2407h-312c-2.8,0-5-2.2-5-5v-206.7c0-2.8,2.2-5,5-5h312c2.8,0,5,2.2,5,5V2402
					C1036.1,2404.8,1033.8,2407,1031.1,2407z M724.1,2397h302v-196.7h-302V2397z"/>
			</g>
			<g>
				<path class="st13" d="M990,2300.7H760.1c-2,0-3.9-1.2-4.6-3.1l-41-100.3c-0.6-1.5-0.5-3.3,0.5-4.7c0.9-1.4,2.5-2.2,4.2-2.2h312
					c1.7,0,3.2,0.8,4.2,2.2c0.9,1.4,1.1,3.1,0.5,4.7l-41,100.3C993.9,2299.4,992.1,2300.7,990,2300.7z M763.5,2290.7h223.2
					l36.9-90.3H726.5L763.5,2290.7z"/>
			</g>
			<g>
				<rect x="838.6" y="2273.2" class="st0" width="72.9" height="51"/>
				<path class="st13" d="M911.5,2329.2h-72.9c-2.8,0-5-2.2-5-5v-51c0-2.8,2.2-5,5-5h72.9c2.8,0,5,2.2,5,5v51
					C916.5,2326.9,914.3,2329.2,911.5,2329.2z M843.6,2319.2h62.9v-41h-62.9V2319.2z"/>
			</g>
			<g>
				<path class="st13" d="M953.1,2200.4h-156c-2.8,0-5-2.2-5-5v-43.5c0-2.8,2.2-5,5-5h156c2.8,0,5,2.2,5,5v43.5
					C958.1,2198.1,955.8,2200.4,953.1,2200.4z M802.1,2190.4h146v-33.5h-146V2190.4z"/>
			</g>
		</g>
		<g class="st1">
			<g>
				<path class="st13" d="M419.6,2020.5c-1.3,0-2.6-0.5-3.5-1.5c-2-2-2-5.1,0-7.1l172.3-172.3c2-2,5.1-2,7.1,0l87.3,87.3l128-128
					h-71.7c-2.8,0-5-2.2-5-5s2.2-5,5-5h83.8c2,0,3.8,1.2,4.6,3.1c0.8,1.9,0.3,4-1.1,5.4l-140,140c-2,2-5.1,2-7.1,0l-87.3-87.3
					L423.1,2019C422.1,2020,420.8,2020.5,419.6,2020.5z"/>
			</g>
			<g>
				<path class="st13" d="M822.7,1882.7c-2.8,0-5-2.2-5-5v-83.8c0-2.8,2.2-5,5-5s5,2.2,5,5v83.8
					C827.7,1880.4,825.5,1882.7,822.7,1882.7z"/>
			</g>
		</g>
		<g class="st1">
			<g>
				<path class="st13" d="M380.5,1711c-74.7,0-135.4-60.8-135.4-135.4s60.8-135.4,135.4-135.4c74.7,0,135.4,60.8,135.4,135.4
					S455.1,1711,380.5,1711z M380.5,1450.1c-69.2,0-125.4,56.3-125.4,125.4S311.3,1701,380.5,1701s125.4-56.3,125.4-125.4
					S449.6,1450.1,380.5,1450.1z"/>
			</g>
			<g>
				<path class="st13" d="M341.4,1619.7c-1.3,0-2.6-0.5-3.5-1.5c-2-2-2-5.1,0-7.1l37.6-37.6v-79.9c0-2.8,2.2-5,5-5s5,2.2,5,5v82
					c0,1.3-0.5,2.6-1.5,3.5l-39.1,39.1C343.9,1619.2,342.6,1619.7,341.4,1619.7z"/>
			</g>
		</g>
		<g class="st1">
			<g>
				<path class="st13" d="M2309.9,1876.6c-1.3,0-2.6-0.5-3.5-1.5c-2-2-2-5.1,0-7.1l118.5-118.5c2-2,5.1-2,7.1,0c2,2,2,5.1,0,7.1
					l-118.5,118.5C2312.5,1876.1,2311.2,1876.6,2309.9,1876.6z"/>
			</g>
			<g>
				<path class="st13" d="M2322.6,1786.3c-11.2,0-20.3-9.1-20.3-20.3s9.1-20.3,20.3-20.3s20.3,9.1,20.3,20.3
					S2333.8,1786.3,2322.6,1786.3z M2322.6,1755.7c-5.7,0-10.3,4.6-10.3,10.3c0,5.7,4.6,10.3,10.3,10.3c5.7,0,10.3-4.6,10.3-10.3
					C2333,1760.3,2328.3,1755.7,2322.6,1755.7z"/>
			</g>
			<g>
				<path class="st13" d="M2415.8,1879c-11.2,0-20.3-9.1-20.3-20.3s9.1-20.3,20.3-20.3s20.3,9.1,20.3,20.3S2427,1879,2415.8,1879z
					 M2415.8,1848.4c-5.7,0-10.3,4.6-10.3,10.3c0,5.7,4.6,10.3,10.3,10.3c5.7,0,10.3-4.6,10.3-10.3
					C2426.1,1853,2421.5,1848.4,2415.8,1848.4z"/>
			</g>
		</g>
		<g class="st1">
			<path class="st13" d="M1841,270h-121.9c-2.8,0-5-2.2-5-5s2.2-5,5-5H1841c2.8,0,5,2.2,5,5S1843.8,270,1841,270z"/>
		</g>
		<g class="st1">
			<g>
				<path class="st13" d="M363.2,833.5H230.8c-2.8,0-5-2.2-5-5s2.2-5,5-5h132.4c2.8,0,5,2.2,5,5S366,833.5,363.2,833.5z"/>
			</g>
			<g>
				<path class="st13" d="M297,899.8c-2.8,0-5-2.2-5-5V762.3c0-2.8,2.2-5,5-5s5,2.2,5,5v132.4C302,897.5,299.8,899.8,297,899.8z"/>
			</g>
		</g>
		<g class="st1">
			<g>
				<path class="st13" d="M410.3,2453.8c-1.3,0-2.6-0.5-3.5-1.5c-2-2-2-5.1,0-7.1l93.6-93.6c2-2,5.1-2,7.1,0c2,2,2,5.1,0,7.1
					l-93.6,93.6C412.8,2453.4,411.5,2453.8,410.3,2453.8z"/>
			</g>
			<g>
				<path class="st13" d="M503.9,2453.8c-1.3,0-2.6-0.5-3.5-1.5l-93.6-93.6c-2-2-2-5.1,0-7.1c2-2,5.1-2,7.1,0l93.6,93.6
					c2,2,2,5.1,0,7.1C506.5,2453.4,505.2,2453.8,503.9,2453.8z"/>
			</g>
		</g>
	</g>
</g>
</svg>
