<?xml version="1.0" encoding="utf-8"?>
<!-- Generator: Adobe Illustrator 19.0.0, SVG Export Plug-In . SVG Version: 6.00 Build 0)  -->
<svg version="1.1" id="Layer_1" xmlns="http://www.w3.org/2000/svg" xmlns:xlink="http://www.w3.org/1999/xlink" x="0px" y="0px"
	 width="1400px" height="980px" viewBox="0 0 1400 980" enable-background="new 0 0 1400 980" xml:space="preserve">
<g id="XMLID_15_">
	<defs>
		<rect id="XMLID_11_" y="-0.2" width="1400" height="980.4"/>
	</defs>
	<clipPath id="XMLID_20_">
		<use xlink:href="#XMLID_11_"  overflow="visible"/>
	</clipPath>
	<g id="XMLID_2_" clip-path="url(#XMLID_20_)">
		<rect id="XMLID_32_" y="-0.2" fill-rule="evenodd" clip-rule="evenodd" fill="#84CFC6" width="1400" height="980.4"/>
		<polygon id="XMLID_19_" fill-rule="evenodd" clip-rule="evenodd" fill="#74B6B0" points="1223.9,159.3 1261.3,196.7 1261.3,394.9 
			1208.8,383 1208.8,167 		"/>
		<polygon id="XMLID_17_" fill-rule="evenodd" clip-rule="evenodd" fill="#74B6B0" points="1289.8,159.4 1327.1,196.8 1294.5,370.3 
			1248.1,362.9 		"/>
		<polygon id="XMLID_24_" fill-rule="evenodd" clip-rule="evenodd" fill="#74B6B0" points="1400,325.3 1400,527.8 1222.1,527.8 
			1192.7,374.3 1190.5,362.5 1202.6,362.3 1200.1,227.4 1296.9,222.1 		"/>
		<polygon id="XMLID_12_" fill-rule="evenodd" clip-rule="evenodd" fill="#74B6B0" points="795.4,304.4 869.4,378.4 772.7,378.4 
			779.6,306.3 		"/>
		<polygon id="XMLID_13_" fill-rule="evenodd" clip-rule="evenodd" fill="#74B6B0" points="935.3,203.2 1103.5,371.4 914.9,371.4 
			895,211.3 		"/>
		<polygon id="XMLID_16_" fill-rule="evenodd" clip-rule="evenodd" fill="#74B6B0" points="1172.8,278.6 1286.9,392.7 1144.9,392.7 
					"/>
		<polygon id="XMLID_10_" fill-rule="evenodd" clip-rule="evenodd" fill="#74B6B0" points="399.4,88.1 606,294.8 369.9,294.8 
			355.3,101.6 		"/>
		<polygon id="XMLID_9_" fill-rule="evenodd" clip-rule="evenodd" fill="#74B6B0" points="56.3,315.2 279.7,538.7 932,538.7 
			678.3,291 		"/>
		<polygon id="XMLID_23_" fill-rule="evenodd" clip-rule="evenodd" fill="#74B6B0" points="1400,438.2 1400,616.6 930.5,616.6 
			707,393.2 1192.7,374.3 1329,369 		"/>
		<rect id="XMLID_192_" x="63.5" y="88.6" fill-rule="evenodd" clip-rule="evenodd" fill="#017C73" width="30.7" height="194.3"/>
		<rect id="XMLID_193_" x="63.5" y="115.7" fill-rule="evenodd" clip-rule="evenodd" fill="#FFFFFF" width="30.7" height="13.1"/>
		<rect id="XMLID_194_" x="94.2" y="88.6" fill-rule="evenodd" clip-rule="evenodd" fill="#231914" width="30.7" height="194.3"/>
		<rect id="XMLID_195_" x="94.2" y="242.6" fill-rule="evenodd" clip-rule="evenodd" fill="#FDF8EA" width="30.7" height="13.1"/>
		<rect id="XMLID_196_" x="125" y="88.6" fill-rule="evenodd" clip-rule="evenodd" fill="#E41E26" width="30.7" height="194.3"/>
		<rect id="XMLID_197_" x="125" y="115.7" fill-rule="evenodd" clip-rule="evenodd" fill="#FDF8EA" width="30.7" height="13.1"/>
		<rect id="XMLID_198_" x="155.7" y="88.6" fill-rule="evenodd" clip-rule="evenodd" fill="#2B9DD8" width="30.7" height="194.3"/>
		<rect id="XMLID_199_" x="155.7" y="115.7" fill-rule="evenodd" clip-rule="evenodd" fill="#FDF8EA" width="30.7" height="13.1"/>
		<rect id="XMLID_200_" x="186.4" y="88.6" fill-rule="evenodd" clip-rule="evenodd" fill="#231914" width="30.7" height="194.3"/>
		<rect id="XMLID_201_" x="186.4" y="242.6" fill-rule="evenodd" clip-rule="evenodd" fill="#B8D487" width="30.7" height="13.1"/>
		<rect id="XMLID_202_" x="217.1" y="67.4" fill-rule="evenodd" clip-rule="evenodd" fill="#D8892A" width="30.7" height="215.4"/>
		<rect id="XMLID_204_" x="247.8" y="88.6" fill-rule="evenodd" clip-rule="evenodd" fill="#1F3B70" width="30.7" height="194.3"/>
		<rect id="XMLID_205_" x="247.8" y="115.7" fill-rule="evenodd" clip-rule="evenodd" fill="#FFFFFF" width="30.7" height="13.1"/>
		<rect id="XMLID_206_" x="278.5" y="88.6" fill-rule="evenodd" clip-rule="evenodd" fill="#017C73" width="30.7" height="194.3"/>
		<rect id="XMLID_207_" x="278.5" y="115.7" fill-rule="evenodd" clip-rule="evenodd" fill="#FFFFFF" width="30.7" height="13.1"/>
		<rect id="XMLID_208_" x="309.3" y="88.6" fill-rule="evenodd" clip-rule="evenodd" fill="#C82127" width="30.7" height="194.3"/>
		<rect id="XMLID_209_" x="309.3" y="242.6" fill-rule="evenodd" clip-rule="evenodd" fill="#FFFFFF" width="30.7" height="13.1"/>
		<rect id="XMLID_210_" x="340" y="88.6" fill-rule="evenodd" clip-rule="evenodd" fill="#4E638F" width="30.7" height="194.3"/>
		<rect id="XMLID_211_" x="340" y="115.7" fill-rule="evenodd" clip-rule="evenodd" fill="#FFFFFF" width="30.7" height="13.1"/>
		<polygon id="XMLID_212_" fill-rule="evenodd" clip-rule="evenodd" fill="#231914" points="453.3,274.8 423.8,283.3 369.9,96.7 
			399.4,88.1 		"/>
		<polygon id="XMLID_213_" fill-rule="evenodd" clip-rule="evenodd" fill="#FFFFFF" points="410.5,126.8 381,135.3 377.4,122.7 
			406.9,114.2 		"/>
		<path id="XMLID_214_" fill-rule="evenodd" clip-rule="evenodd" fill="#B98C4C" d="M56.3,282.8h613.9c4.5,0,8.1,3.7,8.1,8.1v16.1
			c0,4.5-3.7,8.1-8.1,8.1H56.3c-4.5,0-8.1-3.7-8.1-8.1V291C48.2,286.5,51.8,282.8,56.3,282.8L56.3,282.8z"/>
		<rect id="XMLID_215_" x="91.7" y="315.2" fill-rule="evenodd" clip-rule="evenodd" fill="#98733D" width="31.1" height="34.3"/>
		<rect id="XMLID_216_" x="603.6" y="315.2" fill-rule="evenodd" clip-rule="evenodd" fill="#98733D" width="31.1" height="34.3"/>
		<path id="XMLID_217_" fill-rule="evenodd" clip-rule="evenodd" fill="#B98C4C" d="M706.2,362.6h613.9c4.5,0,8.1,3.7,8.1,8.1v16.1
			c0,4.5-3.7,8.1-8.1,8.1H706.2c-4.5,0-8.1-3.7-8.1-8.1v-16.1C698.1,366.2,701.7,362.6,706.2,362.6L706.2,362.6z"/>
		<rect id="XMLID_218_" x="741.6" y="394.9" fill-rule="evenodd" clip-rule="evenodd" fill="#98733D" width="31.1" height="34.3"/>
		<rect id="XMLID_219_" x="1253.5" y="394.9" fill-rule="evenodd" clip-rule="evenodd" fill="#98733D" width="31.1" height="34.3"/>
		<path id="XMLID_220_" fill-rule="evenodd" clip-rule="evenodd" fill="#231914" d="M1208.8,352l-6.2-17.2V163.9
			c0-3.6,2.9-6.5,6.5-6.5l0,0c3.3,0,5.9,2.6,5.9,5.9v171.6L1208.8,352z"/>
		<path id="XMLID_221_" fill-rule="evenodd" clip-rule="evenodd" fill="#EB7475" d="M1214.9,162.9c-0.2-3.1-2.7-5.5-5.9-5.5
			c-3.2,0-5.9,2.4-6.4,5.5H1214.9z"/>
		<rect id="XMLID_222_" x="1202.6" y="162.9" fill-rule="evenodd" clip-rule="evenodd" fill="#1F3B70" width="12.4" height="4.1"/>
		<path id="XMLID_223_" fill-rule="evenodd" clip-rule="evenodd" fill="#1F3B70" d="M1202.6,176.7v155.6c0,0.2,0.2,0.4,0.4,0.4h11.6
			c0.2,0,0.4-0.2,0.4-0.4V176.7H1202.6z"/>
		<path id="XMLID_224_" fill-rule="evenodd" clip-rule="evenodd" fill="#E41E26" d="M1220.5,352l-6.2-17.2V163.9
			c0-3.6,2.9-6.5,6.5-6.5l0,0c3.3,0,5.9,2.6,5.9,5.9v171.6L1220.5,352z"/>
		<polygon id="XMLID_225_" fill-rule="evenodd" clip-rule="evenodd" fill="#999B99" points="1214.4,335.2 1220.5,352 1226.6,335.2 
					"/>
		<path id="XMLID_226_" fill-rule="evenodd" clip-rule="evenodd" fill="#EB7475" d="M1226.7,162.9c-0.2-3.1-2.8-5.5-5.9-5.5
			c-3.2,0-5.9,2.4-6.4,5.5H1226.7z"/>
		<rect id="XMLID_227_" x="1214.3" y="162.9" fill-rule="evenodd" clip-rule="evenodd" fill="#999B99" width="12.4" height="4.1"/>
		<path id="XMLID_228_" fill-rule="evenodd" clip-rule="evenodd" fill="#A71F24" d="M1220.2,167v168c0,0.2,0.1,0.4,0.1,0.4h3.5
			c0.1,0,0.1-0.2,0.1-0.4V167H1220.2z"/>
		<path id="XMLID_229_" fill-rule="evenodd" clip-rule="evenodd" fill="#FFFFFF" d="M1250.7,350.1l-2.6-18.1l34.1-167.5
			c0.7-3.5,4.1-5.8,7.7-5.1l0,0c3.2,0.6,5.3,3.8,4.6,7l-34.2,168.1L1250.7,350.1z"/>
		<polygon id="XMLID_230_" fill-rule="evenodd" clip-rule="evenodd" fill="#999B99" points="1248.1,332.4 1250.7,350.1 1260,334.8 
					"/>
		<path id="XMLID_231_" fill-rule="evenodd" clip-rule="evenodd" fill="#EB7475" d="M1294.4,166c0.4-3-1.6-5.9-4.7-6.5
			c-3.2-0.6-6.3,1.2-7.4,4.1L1294.4,166z"/>
		<polygon id="XMLID_232_" fill-rule="evenodd" clip-rule="evenodd" fill="#999B99" points="1293.7,170 1294.5,166 1282.3,163.5 
			1281.5,167.5 		"/>
		<path id="XMLID_233_" fill-rule="evenodd" clip-rule="evenodd" fill="#C8C9C9" d="M1287.3,168.7l-33.5,164.6c0,0.2,0,0.4,0,0.4
			l3.4,0.7c0.1,0,0.2-0.2,0.2-0.4l33.5-164.6L1287.3,168.7z"/>
		<path id="XMLID_235_" fill-rule="evenodd" clip-rule="evenodd" fill="#231914" d="M1291.6,362.5h-101.1c-2.9,0-5.2-2.3-5.2-5.2
			l0,0c0-2.9,2.3-5.3,5.2-5.3h101.1c2.9,0,5.2,2.4,5.2,5.3l0,0C1296.9,360.2,1294.5,362.5,1291.6,362.5L1291.6,362.5z M1291.6,227.4
			h-6.5V352h-4.8V227.4h-9.2V352h-5.7V227.4h-8.3V352h-6.7V227.4h-7.3V352h-7.6V227.4h-6.4V352h-8.6V227.4h-5.4V352h-9.5V227.4h-5.4
			V352h-3.2V227.4h-6.5c-2.9,0-5.2-2.3-5.2-5.2l0,0c0-2.9,2.3-5.2,5.2-5.2h101.1c2.9,0,5.2,2.3,5.2,5.2l0,0
			C1296.9,225,1294.5,227.4,1291.6,227.4L1291.6,227.4z"/>
		<rect id="XMLID_237_" x="971.2" y="320.7" fill-rule="evenodd" clip-rule="evenodd" fill="#224F82" width="201.6" height="42.1"/>
		<rect id="XMLID_238_" x="1000.4" y="328.5" fill-rule="evenodd" clip-rule="evenodd" fill="#FFFFFF" width="1.7" height="27.3"/>
		<rect id="XMLID_239_" x="1144.9" y="328.5" fill-rule="evenodd" clip-rule="evenodd" fill="#FFFFFF" width="1.7" height="27.3"/>
		<rect id="XMLID_240_" x="971.2" y="278.6" fill-rule="evenodd" clip-rule="evenodd" fill="#991E25" width="201.6" height="42.1"/>
		<rect id="XMLID_241_" x="1000.4" y="286.4" fill-rule="evenodd" clip-rule="evenodd" fill="#FFFFFF" width="1.7" height="27.3"/>
		<rect id="XMLID_242_" x="1144.9" y="286.4" fill-rule="evenodd" clip-rule="evenodd" fill="#FFFFFF" width="1.7" height="27.3"/>
		<path id="XMLID_244_" fill-rule="evenodd" clip-rule="evenodd" fill="#FFFFFF" d="M1020.6,308.7h-2.5v-18.2h3.9l5.3,14.1l5.3-14.1
			h3.9v18.2h-2.5l0.2-15.8l-5.9,15.8h-1.9l-5.9-15.8L1020.6,308.7z M1045.7,302.2v6.6h-2.6V302l-5.6-11.5h2.9l4,8.8l4-8.8h2.9
			L1045.7,302.2z M1062.2,298.2h0.8c1.4,0,2.3-0.2,2.9-0.6c0.6-0.4,0.9-1.1,0.9-2c0-0.8-0.3-1.5-0.8-1.9c-0.5-0.4-1.3-0.6-2.4-0.6
			h-1.4V298.2z M1062.2,306.3h2.1c1.2,0,2.1-0.2,2.7-0.7c0.6-0.4,0.9-1.2,0.9-2.1c0-1-0.3-1.8-0.9-2.3c-0.6-0.5-1.5-0.8-2.7-0.8
			h-2.1V306.3z M1063.5,290.5c1.9,0,3.4,0.4,4.4,1.3c1,0.8,1.5,2.1,1.5,3.7c0,0.7-0.2,1.4-0.5,2c-0.3,0.6-0.8,1-1.4,1.4
			c0.9,0.3,1.6,0.8,2.1,1.5c0.5,0.8,0.8,1.7,0.8,2.7c0,0.8-0.2,1.6-0.5,2.4c-0.3,0.7-0.8,1.4-1.3,1.9c-0.5,0.5-1.2,0.8-1.9,1
			c-0.7,0.2-1.7,0.3-2.9,0.3h-4.2v-18.2H1063.5z M1074.7,299.5c0,0.9,0.1,1.8,0.5,2.7c0.3,0.8,0.8,1.6,1.4,2.2
			c0.6,0.6,1.3,1.1,2.2,1.5c0.8,0.4,1.7,0.5,2.5,0.5c1.9,0,3.5-0.7,4.7-2c1.3-1.3,1.9-3,1.9-5c0-0.8-0.2-1.6-0.5-2.4
			c-0.3-0.8-0.7-1.5-1.3-2.1c-0.7-0.7-1.4-1.3-2.2-1.7c-0.8-0.3-1.7-0.5-2.6-0.5c-0.9,0-1.7,0.2-2.5,0.5c-0.8,0.3-1.5,0.8-2.1,1.4
			c-0.6,0.6-1.1,1.4-1.5,2.2C1074.9,297.8,1074.7,298.7,1074.7,299.5L1074.7,299.5z M1072,299.5c0-1.3,0.2-2.5,0.7-3.6
			c0.5-1.1,1.2-2.2,2.1-3.1c0.9-0.9,1.9-1.5,2.9-2c1.1-0.4,2.2-0.7,3.5-0.7c1.3,0,2.5,0.2,3.5,0.7c1.1,0.4,2.1,1.1,3,2
			c0.9,0.9,1.6,1.9,2.1,3c0.5,1.1,0.7,2.3,0.7,3.6s-0.2,2.5-0.6,3.6c-0.4,1.1-1,2.1-1.8,2.9c-0.9,1-2,1.8-3.2,2.3
			c-1.2,0.5-2.4,0.8-3.8,0.8c-1.4,0-2.6-0.3-3.8-0.8c-1.1-0.5-2.2-1.3-3.1-2.3c-0.8-0.9-1.4-1.8-1.8-2.9
			C1072.2,301.9,1072,300.8,1072,299.5L1072,299.5z M1094.9,299.5c0,0.9,0.2,1.8,0.5,2.7c0.3,0.8,0.8,1.6,1.4,2.2
			c0.6,0.6,1.3,1.1,2.2,1.5s1.6,0.5,2.5,0.5c1.9,0,3.5-0.7,4.7-2c1.3-1.3,1.9-3,1.9-5c0-0.8-0.1-1.6-0.4-2.4
			c-0.3-0.8-0.7-1.5-1.3-2.1c-0.7-0.7-1.4-1.3-2.2-1.7c-0.8-0.3-1.7-0.5-2.6-0.5c-0.9,0-1.7,0.2-2.5,0.5c-0.8,0.3-1.5,0.8-2.1,1.4
			c-0.6,0.6-1.1,1.4-1.5,2.2C1095.1,297.8,1094.9,298.7,1094.9,299.5L1094.9,299.5z M1092.2,299.5c0-1.3,0.2-2.5,0.7-3.6
			c0.5-1.1,1.2-2.2,2.1-3.1c0.9-0.9,1.9-1.5,2.9-2c1.1-0.4,2.2-0.7,3.5-0.7c1.3,0,2.5,0.2,3.5,0.7c1.1,0.4,2.1,1.1,3,2
			c0.9,0.9,1.6,1.9,2.1,3c0.5,1.1,0.7,2.3,0.7,3.6s-0.2,2.5-0.6,3.6s-1,2.1-1.8,2.9c-0.9,1-2,1.8-3.2,2.3c-1.2,0.5-2.4,0.8-3.8,0.8
			c-1.4,0-2.6-0.3-3.8-0.8s-2.2-1.3-3.1-2.3c-0.8-0.9-1.4-1.8-1.8-2.9C1092.4,301.9,1092.2,300.8,1092.2,299.5L1092.2,299.5z
			 M1115.9,299.7l6.9-9.2h3.2l-7.1,9l6.9,9.2h-3.3L1115.9,299.7z M1115.8,308.7h-2.6v-18.2h2.6V308.7z"/>
		<path id="XMLID_256_" fill-rule="evenodd" clip-rule="evenodd" fill="#FFFFFF" d="M1018.4,347.2h2.6c1.6,0,3-0.5,3.9-1.4
			c1-1,1.4-2.3,1.4-3.9c0-1.7-0.5-3.1-1.5-4c-1-1-2.4-1.4-4.2-1.4h-2.2V347.2z M1020.5,349.2h-4.2v-14.8h4.8c2.2,0,4,0.7,5.4,2.1
			c1.4,1.4,2,3.2,2,5.4c0,1.3-0.3,2.4-0.8,3.4c-0.5,1-1.2,1.9-2.2,2.6c-0.6,0.5-1.3,0.8-2.1,1
			C1022.7,349.1,1021.7,349.2,1020.5,349.2L1020.5,349.2z M1032.7,349.2h-2.1v-14.8h2.1V349.2z M1048.7,345.5
			c-0.6,1.3-1.5,2.3-2.7,3c-1.1,0.7-2.5,1-4,1c-1.1,0-2.1-0.2-3.1-0.6c-0.9-0.4-1.8-1.1-2.5-1.9c-0.6-0.7-1.1-1.5-1.4-2.4
			c-0.3-0.9-0.5-1.8-0.5-2.9c0-1,0.2-2,0.6-2.9c0.4-0.9,1-1.8,1.7-2.5c0.7-0.7,1.5-1.2,2.4-1.6c0.9-0.4,1.8-0.5,2.8-0.5
			c1.5,0,2.9,0.4,4,1.1c1.2,0.7,2,1.7,2.6,3.1h-2.5c-0.5-0.7-1.1-1.1-1.7-1.5c-0.7-0.3-1.5-0.5-2.4-0.5c-0.7,0-1.4,0.1-2,0.4
			c-0.6,0.3-1.2,0.6-1.7,1.2c-0.5,0.5-0.9,1.1-1.2,1.8c-0.3,0.7-0.4,1.4-0.4,2.1c0,0.8,0.1,1.5,0.4,2.2c0.3,0.7,0.6,1.3,1.1,1.8
			c0.5,0.5,1.1,0.9,1.8,1.2c0.7,0.3,1.3,0.4,2,0.4c0.8,0,1.6-0.2,2.3-0.5c0.7-0.3,1.2-0.8,1.7-1.4H1048.7z M1054.7,349.2h-2.1v-12.8
			h-2.8v-2h7.7v2h-2.8V349.2z M1061.1,349.2h-2.1v-14.8h2.1V349.2z M1065.2,341.7c0,0.8,0.1,1.5,0.4,2.2c0.3,0.7,0.6,1.3,1.1,1.8
			c0.5,0.5,1.1,0.9,1.8,1.2c0.7,0.3,1.3,0.4,2,0.4c1.5,0,2.8-0.5,3.8-1.6c1-1.1,1.6-2.4,1.6-4.1c0-0.7-0.1-1.3-0.4-2
			c-0.2-0.6-0.6-1.2-1.1-1.7c-0.6-0.6-1.2-1-1.8-1.3c-0.6-0.3-1.3-0.4-2.1-0.4c-0.7,0-1.4,0.1-2,0.4c-0.6,0.3-1.2,0.6-1.7,1.2
			c-0.5,0.5-0.9,1.1-1.2,1.8C1065.4,340.3,1065.2,341,1065.2,341.7L1065.2,341.7z M1063,341.7c0-1,0.2-2,0.6-3
			c0.4-0.9,1-1.8,1.7-2.5c0.7-0.7,1.5-1.2,2.4-1.6c0.9-0.4,1.8-0.5,2.8-0.5c1,0,2,0.2,2.9,0.5c0.9,0.4,1.7,0.9,2.4,1.6
			c0.7,0.7,1.3,1.6,1.7,2.5c0.4,0.9,0.6,1.9,0.6,3c0,1-0.2,2-0.5,2.9c-0.3,0.9-0.8,1.7-1.5,2.4c-0.8,0.8-1.6,1.4-2.6,1.9
			c-0.9,0.4-2,0.6-3.1,0.6c-1.1,0-2.1-0.2-3.1-0.6c-0.9-0.4-1.8-1.1-2.5-1.9c-0.6-0.7-1.1-1.5-1.4-2.4
			C1063.2,343.7,1063,342.7,1063,341.7L1063,341.7z M1082.3,349.2h-2.1v-14.8h2.2l7.3,11.2l-0.1-11.2h2.1v14.8h-2.1l-7.5-11.6
			L1082.3,349.2z M1101.2,342.8l-2.1-5.6l-2.1,5.6H1101.2z M1096.2,344.9l-1.7,4.3h-2.3l5.8-14.8h2.1l5.8,14.8h-2.3l-1.6-4.3H1096.2
			z M1108.9,342.1h1.1c1.5,0,2.6-0.2,3.3-0.7c0.7-0.5,1.1-1.2,1.1-2.2c0-0.9-0.3-1.7-0.9-2.1c-0.6-0.4-1.6-0.7-3-0.7h-1.6V342.1z
			 M1108.9,349.2h-2.1v-14.8h4.3c1.8,0,3.1,0.4,4.1,1.2c0.9,0.8,1.4,2,1.4,3.6c0,1.2-0.4,2.2-1.2,3c-0.8,0.8-1.8,1.2-3,1.3l4.2,5.7
			h-2.7l-4.9-6.9V349.2z M1123.1,343.9v5.3h-2.2v-5.5l-4.5-9.4h2.4l3.3,7.1l3.3-7.1h2.4L1123.1,343.9z"/>
		<g id="XMLID_1_">
			<g id="XMLID_68_">
				<path id="XMLID_63_" fill="#E2AC64" d="M391.6,789.3l79.2-122.2l23.5,15.2c5.9,3.8,7.6,11.7,3.8,17.6l-72.3,111.5L391.6,789.3z"
					/>
				<path id="XMLID_62_" fill="#E2AC64" d="M391.6,831.4l79.2-122.2l23.5,15.2c5.9,3.8,7.6,11.7,3.8,17.6l-72.3,111.5L391.6,831.4z"
					/>
			</g>
			<path id="XMLID_273_" fill-rule="evenodd" clip-rule="evenodd" fill="#E3B593" d="M596.5,682.3l-0.3-0.3
				c-8.8-8.8-8.9-22.9-0.3-31.5l24-23.5c8.6-8.6,22.7-8.4,31.5,0.4l0.3,0.3c8.8,8.8,8.9,22.9,0.3,31.5l-24,23.5
				C619.4,691.3,605.3,691.1,596.5,682.3L596.5,682.3z"/>
			<path id="XMLID_274_" fill-rule="evenodd" clip-rule="evenodd" fill="#E3B593" d="M594.1,729.3l-0.3-0.3
				c-7.9-9.6-6.8-23.6,2.6-31.4l26-21.2c9.3-7.8,23.4-6.3,31.3,3.2l0.3,0.3c7.9,9.6,6.8,23.6-2.6,31.4l-26,21.2
				C616,740.3,602,738.8,594.1,729.3L594.1,729.3z"/>
			<path id="XMLID_275_" fill-rule="evenodd" clip-rule="evenodd" fill="#E3B593" d="M594.9,766l-0.2-0.4c-5-10.4-0.7-22.8,9.5-27.7
				l28.3-13.2c10.2-4.9,22.5-0.4,27.5,10.1l0.2,0.4c5,10.4,0.7,22.8-9.5,27.7l-28.3,13.2C612.2,780.9,599.9,776.4,594.9,766
				L594.9,766z"/>
			<path id="XMLID_278_" fill-rule="evenodd" clip-rule="evenodd" fill="#EEE4D3" d="M618.9,650.8l-0.1-0.3
				c-3.1-7.8-8.3-13.1-17.6-9.3l-8,3.3c-9.3,3.8-10.5,11.6-7.3,19.4l0.1,0.3c3.1,7.8,9.4,12.6,18.7,8.8l8-3.3
				C622,665.9,622.1,658.6,618.9,650.8L618.9,650.8z"/>
			<path id="XMLID_280_" fill-rule="evenodd" clip-rule="evenodd" fill="#EEE4D3" d="M618.4,701.3l-0.1-0.3c-3-7.6-8-12.7-17-9
				l-7.8,3.2c-9,3.7-10.2,11.3-7.1,18.8l0.1,0.3c3.1,7.6,9.1,12.2,18.1,8.5l7.8-3.2C621.5,716,621.5,708.9,618.4,701.3L618.4,701.3z
				"/>
			<path id="XMLID_282_" fill-rule="evenodd" clip-rule="evenodd" fill="#EEE4D3" d="M618.6,752l-0.1-0.2
				c-2.8-6.9-7.3-11.5-15.5-8.2l-7.1,2.9c-8.2,3.3-9.2,10.2-6.5,17.1l0.1,0.2c2.8,6.9,8.3,11.1,16.5,7.8l7.1-2.9
				C621.3,765.4,621.4,758.9,618.6,752L618.6,752z"/>
			<path id="XMLID_283_" fill-rule="evenodd" clip-rule="evenodd" fill="#3E3938" d="M946.5,452.7c12.7,0,23.2,10.4,23.2,23.2v355.3
				c0,12.7-10.4,23.2-23.2,23.2H470.8c-12.7,0-23.2-10.4-23.2-23.2V475.8c0-12.8,10.4-23.2,23.2-23.2L946.5,452.7z"/>
			<path id="XMLID_284_" fill-rule="evenodd" clip-rule="evenodd" fill="#595757" d="M471.4,648.4c2.8,0,5.2,2.3,5.2,5.1
				c0,2.8-2.3,5.2-5.2,5.2c-2.8,0-5.1-2.3-5.1-5.2C466.3,650.7,468.6,648.4,471.4,648.4L471.4,648.4z"/>
			<path id="XMLID_285_" fill-rule="evenodd" clip-rule="evenodd" fill="#888889" d="M945.9,644.5c5,0,9,4,9,9c0,5-4,9-9,9
				c-5,0-9-4-9-9C936.9,648.5,940.9,644.5,945.9,644.5L945.9,644.5z"/>
			<rect id="XMLID_286_" x="492" y="491.6" fill-rule="evenodd" clip-rule="evenodd" fill="#C8C9C9" width="433.2" height="323.8"/>
			<path id="XMLID_290_" fill-rule="evenodd" clip-rule="evenodd" fill="#8DAE3E" d="M751.4,734.9l31.9-23.7
				c9.6,2.5,19.7,3.8,30.1,3.8c4.3,0,8.5-0.2,12.6-0.6l1.9,91.8l-40,6.8L772,789.1L751.4,734.9z"/>
			<polygon id="XMLID_291_" fill-rule="evenodd" clip-rule="evenodd" fill="#8DAE3E" points="557.8,643.7 590.4,606.3 613.9,640.3 
				583.1,669.2 			"/>
			<polygon id="XMLID_292_" fill-rule="evenodd" clip-rule="evenodd" fill="#BF1D6F" points="560.2,637.8 569.9,639 571.3,642.2 
				568.8,648.4 560.2,648.8 			"/>
			<path id="XMLID_294_" fill-rule="evenodd" clip-rule="evenodd" fill="#FFFFFF" d="M818.5,815.4l24.5-5.8l0.3,5.8h6.7l-0.3-7.1
				l10.7-1.2l-0.5,8.3h6.7l0.5-9.1l15.1-1.7l-0.2,10.8h6.7l0.2-11.6l17.6-2l0.4,13.6h6.7L913,801l7.7-0.9l-0.7,15.3h5.3V640.9
				c-1.1,2.5-2.2,4.9-3.4,7.3l3.4,51.4l-20.7-2.2c0.1-0.4,0.2-0.8,0.2-1.2l-0.8-21.8c-2.1,2.3-4.2,4.5-6.4,6.6l0.5,15.4
				c0,0.1,0,0.2,0,0.3l-17.8-1.9c-3.4,2.3-7,4.4-10.7,6.3l18.9,2l0.3,46.9l-31.5,0.8c4.4-10,8.7-24.4,8.9-47.9c-2.2,1.1-4.4,2-6.7,3
				c-0.5,21.2-4.7,34.2-8.7,43.3l-4.6-2.4c-1.3-0.7-2.8-0.4-3.8,0.5l-8.4,8c-1.3,1.3-1.4,3.4-0.1,4.7c1.3,1.3,3.4,1.4,4.7,0.1
				l6.6-6.3l2.7,1.4c-0.3,0.5-0.5,1-0.7,1.5c-0.7,1.5-1.4,2.8-2.1,4.1c-5,10.8-2.8,32.7-2.6,34.6l0.1,2.2l-11.5,2.7l-2-86.4
				c-2.2,0.3-4.4,0.5-6.6,0.7l1.3,55.5l-24.3,6c-1.8,0.4-2.9,2.2-2.4,4c0.4,1.8,2.2,2.9,4,2.4l22.9-5.6l0.6,24.9l-35,8.2
				c-0.5-1.1-1.1-2.3-1.7-3.4c-7.9-16.4-16.8-34.9-23.1-51.2c-1.7-4.4-4.5-11-8.2-19.3l33.1-23.6c-2.9-0.6-5.8-1.3-8.6-2L753.4,730
				c-2-4.5-4.2-9.3-6.6-14.4l13.9-7.2l2.2,3.9c0.9,1.6,2.9,2.1,4.5,1.2c1.6-0.9,2.1-2.9,1.2-4.5l-1.8-3.2c-2.8-1.2-5.6-2.4-8.3-3.8
				l-14.6,7.6c-3.8-8.2-7.9-16.9-12.2-26c-22.9-20.7-37.9-50.1-39.8-82.9l-1.4-2.8l1.2-0.1c0-1.4-0.1-2.8-0.1-4.3c0-0.8,0-1.6,0-2.4
				l-4.3,0.5c-2.9-5.9-5.6-11.4-8-16.5l7.1,0.9l0.4,6.7c0.1,1.3,1.1,2.3,2.4,2.4c0.1,0,1.2,0.1,2.7,0.2c0.1-1.7,0.3-3.4,0.4-5.1
				l-0.5,0l-0.3-5.4c0.5,0,1,0,1.5-0.1c0.3-1.7,0.6-3.5,0.9-5.2c-3.8,0.2-10.7,0-17.5-0.3c-6.8-14-11.5-23.5-12.6-25.7
				c-0.1-0.4-0.6-1.7-1.1-3.7l42.5-2.3c0.9-1.8,1.9-3.6,3-5.3l-46.5,2.5c-1.1-6.8-1.9-17.2-0.3-30.8l62.1-0.1
				c0.4,2.2,0.8,4.3,1.2,6.5c3.2-3.4,6.6-6.6,10.2-9.6c-0.5-2.9-0.9-5.8-1.1-8.7h-11.9c0.2,2.2,0.4,4.5,0.7,6.7l-35.3,0.1l2-6.8
				h-5.8l-1.7,6.8l-19.7,0c0.3-1.6,0.5-3.3,0.9-5c0.1-0.6,0.2-1.2,0.3-1.8h-12c-0.8,4.3-1.4,8.4-1.8,12.3
				c-15.3-1.8-45.5-1.1-72.4,0.2l0.4-12.5h-5.2l-0.4,12.7c-19.4,1-36.4,2.2-43.7,2.7c2.3-5.1,4.6-10.3,6.7-15.4h-12.8
				c-9.5,22.1-21.5,45.5-22.6,47.6c-0.5,0.9-3.5,5.8-7.8,12.9v22.7c1.6-2.6,3.2-5.2,4.7-7.6l0,0l37.6,24.3c0.5,0.3,1.1,0.5,1.7,0.4
				c0.1,0,0.3,0,0.4-0.1c0.7-0.2,1.3-0.7,1.6-1.3l7.3-14.5c0.6-1.3,0.1-2.8-1.1-3.5c-1.3-0.6-2.8-0.1-3.5,1.1l-6,11.9l-35.3-22.8
				c1.9-3,3.5-5.8,5-8.2l32.4,19.7c0.5,0.3,1.1,0.4,1.6,0.4c0.8-0.1,1.5-0.5,2-1.2c0.7-1.2,0.3-2.8-0.9-3.6l-32.4-19.7
				c1.7-2.8,2.7-4.6,3-5c0-0.1,0.1-0.2,0.2-0.3c0.2-0.3,1.2-2.4,2.9-5.7c1.8,0.3,9.4,1.9,16.7,5v0l-0.4,9.7c0,1.1,0.6,2.1,1.6,2.5
				c3.6,1.4,20.7,7.9,28.5,7.2l11.4,8c1.8,4.5,4,9.6,6.5,14.9c2.8,6.1,5.7,11.9,8.8,17.4l-29.1,35.5l-15.5-14.7
				c-0.6-0.6-1.3-0.8-2.1-0.9l-0.4-0.4l-0.1-0.1c-0.4-0.3-7.7-7.1-15.9-11.4c1.6-2,2.3-4,2.3-5.9c0-3.3-2.1-5.3-3.1-6.3
				c-0.1-0.1-0.2-0.2-0.3-0.3c-1.2-1.3-3.1-2.1-5.1-2.1c-1.6,0-4,0.6-6.2,3.1c-1.6,1.9-2.2,4.2-1.5,6.6c0.8,3.2,3.6,6.1,7,7.4
				c8.7,3.2,18.4,11.9,19.3,12.7l0.6,0.7c0.1,0.7,0.4,1.3,1,1.8l0.5,0.5l-11.5,12.2l-20.4-21.5l-2-36.9l0-0.1c0-0.1,0-0.1,0-0.2
				l0-0.2l-0.1-0.2l-0.1-0.2l-0.1-0.1l-0.1-0.1l-0.1-0.1l-0.1-0.1l-0.1-0.1l-0.2-0.1l-0.1,0l-10.6-4.9v4.1l8.1,3.7l1.7,31.4
				l-2.5-2.6l-0.1-0.1c0.6-0.8,0.5-1.9-0.2-2.5l-6.9-6.1v4.9l2.3,2.1c-0.8,0.1-1.6,0.3-2.3,0.8v16.2l2.8-2.7l16.3,17.2l-7.8,6.8
				c-1.7-1.7-3.4-3.4-5-5.1c-2-2-4.1-3.9-6.3-5.7v16.1c0.8,0.8,1.6,1.6,2.4,2.5l-2.4,2.1v4.9l5-4.4c0.6,0.6,1.3,1.3,1.9,1.9
				c-2.2,2.2-4.5,4.3-6.6,6.2c-0.1,0.1-0.2,0.2-0.3,0.3v13.1c1.9,1.2,3.6,2.3,4.8,3c2.8,1.7,5.2,1.6,6.7,1.2
				c2.6-0.7,4.3-2.6,5.1-3.7l7.4-2.8c0.2,0.2,0.5,0.5,0.7,0.7l-18.6,24.8l-6.2-3.1v4.1l3.9,2l-1.5,2c-0.5,0.7-0.8,1.6-0.6,2.5
				c0.1,0.9,0.7,1.7,1.4,2.2l4.3,2.9c-0.4,0.4-0.6,0.9-0.5,1.5l2.4,22.6L492,741v6.7l61,9.5c0.3,0.1,0.7,0.1,1,0
				c0.3,0,0.7-0.2,1-0.3l24-11.4c0.9,2.5,2.1,6.8,2.8,12.7l-7.6-0.3c-1.8-0.1-3.4,1.3-3.5,3.2c-0.1,1.8,1.3,3.4,3.2,3.5l8.4,0.4
				c0,3.3-0.1,7-0.6,11.1l-29.8,8.9l-2.8-3.9c-1.1-1.5-3.1-1.8-4.6-0.8c-1.5,1.1-1.8,3.1-0.8,4.6l4.1,5.8l0.1,0.1l17.6,24.7h9
				c0.9-1.3,1.7-2.7,2.4-4c18.5-34.4,11.2-60.9,8.3-68.7l7.9-3.8c2.1,1.2,3.7,2.9,5,6.1c4.1,10.3,12.4,44.3,16.5,70.4h11.9
				c-0.2-1.1-0.4-2.3-0.5-3.5l37.7-4c1.8-0.2,3.1-1.8,3-3.7c-0.2-1.8-1.8-3.1-3.6-3l0,0l-38.1,4c-4.4-24.8-11.6-54.1-15.8-64.7l0,0
				c-0.9-2.4-2-4.3-3.3-6c14.4-4,32.7-13,53.7-24.5c2.8,4.7,5.1,9.7,6.1,14.7c0.7,3.7,1.7,10.4,2.8,19l-11.8,2.7l-1.1-8.8
				c-0.2-1.8-1.9-3.1-3.7-2.9c-1.8,0.2-3.1,1.9-2.9,3.7l1.5,12.4c0.1,0.9,0.6,1.8,1.4,2.3c0.6,0.5,1.4,0.7,2.2,0.6
				c0.1,0,0.3,0,0.4-0.1l14.7-3.4c1.1,9.6,2.2,20.8,3.2,32.4c1.2,14.1,1.7,24.7,1.9,32.5h11.8c-0.2-7.7-0.7-17.8-1.8-31.3
				c-0.6-7-1.2-14.3-1.9-21.4c7.9-0.5,22.4-1.9,29-5.4c3.1-1.6,6.6-3.3,10.2-4.9l2.5,5.9c-4,2-8.3,4.2-12.1,6.4
				c-10,5.9-17.9,7-18,7.1c-1.7,0.2-3,1.8-2.9,3.5l3.1,40.1h6.7l-0.4-5.8l33.4-7.4l1.6,8.1l-21.7,5.1h29.5l0-0.1l19.6-4.6
				c0.9-0.2,1.8-0.9,2.2-1.7c0.4-0.9,0.5-1.9,0.1-2.8l-21.9-52.7c-0.3-0.8-1-1.5-1.8-1.8c-0.8-0.3-1.7-0.3-2.6,0
				c-0.3,0.1-3.8,1.6-8.6,3.8l-2.5-5.7c7.3-3.2,14.3-6,18.5-7.6c3.4,7.6,6,13.6,7.5,17.6c6.5,16.8,15.5,35.6,23.5,52.1
				c0.2,0.5,0.5,1,0.7,1.4c-2,0.6-4.5,1.3-7.3,2.1H818.5z M911.5,521.7c4.8-3,9.5-5.9,13.8-8.6v-7.9c-5.4,3.4-11.5,7.3-17.9,11.2
				C908.8,518.1,910.1,519.9,911.5,521.7L911.5,521.7z M606.3,815.4h-6.7l-7.7-65c-0.2-1.8,1.1-3.5,2.9-3.7c1.8-0.2,3.5,1.1,3.7,2.9
				L606.3,815.4z M561.1,815.4H553l-26.5-37.3c-1.1-1.5-0.7-3.6,0.8-4.6c1.5-1.1,3.6-0.7,4.6,0.8L561.1,815.4z M518,815.4h-7.8
				l0.9-1.5l-9.5-21.8c-0.7-1.7,0-3.6,1.7-4.4c1.7-0.7,3.6,0,4.4,1.7l10.2,23.4C518.3,813.7,518.4,814.6,518,815.4L518,815.4z
				 M879.7,491.6h37.7v0c-0.1,1.4-1.3,2.4-2.7,2.4L879.7,491.6L879.7,491.6z M555.8,790.6l24.5-7.3c-1.7,7.5-4.6,15.9-9.4,24.9
				c-0.4,0.7-0.7,1.3-1.1,1.9L555.8,790.6z M565.1,744.8l-36.8-24.7l4.7-6.8l5.4,4.1c1.5,1.1,3.5,0.8,4.7-0.6
				c1.1-1.5,0.8-3.5-0.6-4.7l-8.1-6.2c-0.7-0.5-1.6-0.8-2.5-0.6c-0.9,0.1-1.7,0.6-2.2,1.4l-3,4.3l-2.4-2l9.1-12
				c17.7,17,33.1,30.2,44.6,36.2l0,0c2,1.2,4.1,2,6.1,2.6L565.1,744.8z M553.1,750.5l-34.7-5.4l3.6-16.1l2.5-3.5l33.6,22.6
				L553.1,750.5z M501.8,712l19.8-26.4c3,3,6,5.9,9,8.8l-10.5,13.7c-0.6,0.8-0.5,1.9,0.3,2.5l4,3.4L521,719l-0.1,0.1l-2.8,4
				L501.8,712z M511.8,744.1l-6.7-1l-2.3-22.3l12.4,8.4L511.8,744.1z M520.2,605.9c0,1-0.7,2.3-2.1,3.7c-0.1,0-0.2-0.1-0.2-0.1
				c-1.8-0.7-3.4-2.3-3.8-3.8c-0.2-1,0.1-1.6,0.4-1.9c0.7-0.8,1.4-1.2,2.2-1.3l0.1,0c0.8,0,1.3,0.3,1.4,0.4c0.1,0.1,0.3,0.3,0.5,0.5
				C519.5,604.1,520.2,604.9,520.2,605.9L520.2,605.9z M515.8,533.7c0.4-0.7,0.7-1.5,1.1-2.3c7.8,1.5,25,4.1,36.3,1.1
				c0.6-0.2,1.3-0.3,1.9-0.5c0.8,3.2,2.5,7.2,4.2,10.9l-22.4-1c-0.3-0.2-0.6-0.3-0.9-0.5c-4.2-2.2-9.3-4.2-15.1-5.8
				c-2.3-0.6-4-1.1-5.3-1.3L515.8,533.7z M524.7,515.4l1.9-3.1c4-0.3,16.6-1.2,32.6-2.1c-1,4-3.2,12.4-4,16.5c-1,0.2-2,0.5-3.1,0.8
				c-9.6,2.5-24.7,0.4-32.7-1C521,523.1,522.8,519.4,524.7,515.4L524.7,515.4z M702.3,544l-2.8,0c-0.7,0-1.3,0.3-1.8,0.8
				c-0.5,0.5-0.8,1.1-0.8,1.8c0,4.1,0,8.6-0.1,12.5C698.2,553.9,700.1,548.9,702.3,544L702.3,544z M908.3,705.3l-0.1,44.3l-12.6,0.3
				c-0.1-0.2-0.1-0.4-0.2-0.6l-0.3-45.4L908.3,705.3z M923.9,730.3v0.1l-0.9,18.8l-8.2,0.2L915,706l10,1.1L923.9,730.3z M922,770.9
				L922,770.9L922,770.9l-0.8,17.5c-0.6-0.1-1.2-0.1-1.8-0.1l-70.4,8.1l-0.1-1.4c0-0.1,0-0.1,0-0.2c-0.2-2.2-0.5-5.9-0.6-10.2
				l45.5-1.6c0.9,0,1.7-0.4,2.3-1.1c0.6-0.6,0.9-1.5,0.9-2.4l-1-23.1l26.7-0.7L922,770.9z M889.4,756.7l0.9,19.9l-41.8,1.4
				c0.2-5.5,0.9-10.9,2.6-14.3c0.6-1.2,1.2-2.5,2-4c0.3-0.7,0.7-1.4,1.1-2.1L889.4,756.7z M732.4,795.7l-32.6,7.2l-1.9-25.1
				c3.6-0.9,10-2.9,17.4-7.3c3.4-2,7.3-4.1,11.1-5.9L732.4,795.7z M727.4,701.9c2.1,4.5,4.2,8.9,6.2,13.1l-22.4,11.7l-3.4-9
				c-0.6-1.7-2.6-2.6-4.3-1.9c-1.7,0.6-2.6,2.6-1.9,4.3l4.7,12.5c0.3,0.9,1,1.6,1.9,1.9c0.5,0.2,1,0.3,1.5,0.2
				c0.4,0,0.8-0.2,1.2-0.4l25.4-13.3c2.5,5.4,4.8,10.4,6.9,15c-7.6,3-24,9.6-35.1,15.3c-5.2,2.7-18.4,4.1-26.7,4.7
				c-1.6-14.4-3.2-27.2-4.5-33.5c0-0.1,0-0.1,0-0.2L727.4,701.9z M679.1,699.1c4.6-2.6,8.9-5,13-7.3c8.6-4.8,16.3-8,25-11.6
				c3,6.3,5.9,12.4,8.7,18.4L676,718.8c-1.4-5-3.7-9.8-6.3-14.3C672.8,702.7,675.9,700.9,679.1,699.1L679.1,699.1z M648.2,678
				l-0.7-0.7c-0.9-0.9-2.1-1.6-3.5-2l0.1-3.1c0.2-5.6-3.2-9.1-9.5-15.5c-0.3-0.3-0.6-0.6-0.9-0.9l12.9-8.6l25.7,42.1
				c-3,1.7-6.1,3.5-9.3,5.3C657.4,687.2,651.5,681.3,648.2,678L648.2,678z M602.1,703.6c13.9-7.6,31.3-16,38.2-16.8
				c2.7,2.7,7.5,7.6,12.3,13.6c-13.9,7.6-28.6,15.1-41,19.9L602.1,703.6z M583.1,715.4c1.9-1.8,8.1-5.7,15.8-10l9.2,16.2
				c-8.4,2.9-15.5,4.3-20,3.1c-0.5-0.1-1-0.3-1.4-0.4c-0.4-0.2-0.9-0.3-1.4-0.6C583.7,720.4,582.7,716.7,583.1,715.4L583.1,715.4z
				 M564.7,682.9l13-15l4.5,4.2c1.3,1.2,3.4,1.2,4.6-0.1l27.6-27.7c6.6,7.8,11.7,13,15.6,17c5.9,6,7.7,8,7.6,10.5l-0.2,3.4
				c-12.5,2.5-40.5,16.7-55,26.2L564.7,682.9z M546,680.3l7.7,8.1c0.2,0.5,0.5,0.9,0.9,1.2c0.2,0.2,0.5,0.3,0.7,0.5l17.9,18.9
				c-1.1,1.8-1.7,3.8-1.8,5.9c-9.1-7-20-16.8-30.8-27.3L546,680.3z M533.4,667.1l10,10.6l-5.6,7.4c-3.8-3.7-7.5-7.4-11.2-11
				L533.4,667.1z M536.4,645.5c-0.3,0.3-0.5,0.6-0.6,1l-1.3,4.6l-5.9-6.3l11.6-12.4l3,2.8l1.2,1.3L536.4,645.5z M562,653.2
				l-11.4,14.9l-11.9-12.6l2-7l7.6-8.4L562,653.2z M569.9,642.9l-3.8,5l-4.1-3.9l3.7-4.5L569.9,642.9z M572.8,663.4l-12.7,14.7
				l-6.9-7.3l11.5-15.1L572.8,663.4z M602.3,629.3c2.8,3.7,5.4,7,7.8,10.1l-25.7,25.8l-4.6-4.4l-0.1,0l-10.9-10.3l5.1-6.8
				c0.6-0.8,0.5-1.9-0.3-2.5l-5.6-4.6l21.7-26.5C593.7,617,598,623.4,602.3,629.3L602.3,629.3z M600,582.9c1,2,2.9,6.7,5.1,12.2
				l-13.4,5.1c-2.2-4-4.4-8.2-6.5-12.6C591.4,584.8,597.7,582.8,600,582.9L600,582.9z M587.3,508.8l-3.5,21.8l-5-7l-1.1-14.4
				C580.8,509.1,584,509,587.3,508.8L587.3,508.8z M605,508.2c-0.1,0.2-0.1,0.4-0.1,0.7l-1.4,29.5v0.2l-11.6,1.2l-3.8-3.5l4.4-27.7
				C596.7,508.5,600.9,508.3,605,508.2L605,508.2z M697.8,639.9l-17,7.7l-21.3-44.9l3.1-0.7c1.8-0.4,2.9-2.2,2.5-3.9l-10-46.6
				C660.4,562.6,678.5,599.6,697.8,639.9L697.8,639.9z M683.6,653.6l17.1-7.7c3.8,7.9,7.6,15.8,11.3,23.6c-6,2.5-11.5,4.8-17.2,7.6
				L683.6,653.6z M649.2,526.8c0.3,4.4,0.8,8.1,1.4,11.1l-40.4,0.3l0.4-7.9L649.2,526.8z M611.4,508.1c15.5-0.3,29.4-0.1,37.9,0.9
				c-0.4,5.3-0.4,10.1-0.3,14.4l-38.3,3.4l0.8-17.6C611.6,508.8,611.5,508.4,611.4,508.1L611.4,508.1z M643.2,641.6l-14.1,9.4
				c-2.6-2.7-5.5-6-8.9-9.9l18.8-6.4L643.2,641.6z M639.4,627.5l-23.7,8.1c-2.5-3.1-5.2-6.5-8-10.4c-4.4-5.8-8.6-12.3-12.7-19.3
				l12.5-4.7c1.8,4.6,3.6,9.3,5,13.1c0.3,0.8,0.9,1.5,1.8,1.9s1.7,0.4,2.6,0l31.8-12.6c1.7-0.7,2.5-2.6,1.9-4.3
				c-0.7-1.7-2.6-2.5-4.3-1.9l-28.6,11.4c-0.9-2.5-2.3-6.1-3.8-9.9l11.7-4.4c0.9-0.3,1.5-1,1.9-1.8c0.3-0.8,0.3-1.8,0-2.6
				l-17.4-39.2l0.3-7.4l36.4-0.3c0,0.2,0,0.4,0.1,0.6l3.4,15.7l-8.4,1l-0.1,0l-14.2,1.7l-8.6-16.5c-0.8-1.6-2.9-2.3-4.5-1.4
				c-1.6,0.8-2.3,2.9-1.4,4.5l9.7,18.5c0.6,1.2,2,1.9,3.3,1.8l13.7-1.6l4.4,14.5l-12.2,5.4c-1.7,0.7-2.4,2.7-1.7,4.4
				c0.7,1.7,2.7,2.4,4.4,1.7l14.9-6.6c1.5-0.7,2.3-2.4,1.8-4l-4.9-16.2l5.1-0.6l6.5,30.3l-3.9,0.9c-1,0.2-1.8,0.9-2.3,1.8
				c-0.4,0.9-0.4,2,0,2.9l37.2,78.3c-0.8,0.4-1.7,0.9-2.5,1.4c-2.6,1.5-5.4,3-8.2,4.6l-34.9-57.2C642.5,627.6,640.8,627,639.4,627.5
				L639.4,627.5z M754.1,797.7l3.1,7.4l-15.6,3.7l-1.5-7.9L754.1,797.7z M732.5,761.6c2.2-1,4.1-1.9,5.6-2.5l13.5,32.4l-12.7,2.8
				L732.5,761.6z M562.3,525c1.3-5.7,3.5-14.1,3.8-15.2c2.1-0.1,4.2-0.2,6.4-0.3l1,13.2C571.2,523.1,567.4,523.9,562.3,525
				L562.3,525z M561.6,530.5c6.7-1.6,11.6-2.4,13.8-2.8l7.9,11.1l0.1,0.1c0.1,0.1,0.2,0.2,0.2,0.3l0,0l5.7,5.3
				c0.5,0.5,1.3,0.7,2,0.7l12-1.3l-0.3,7.5c0,0.5,0.1,1,0.3,1.5l16.3,36.7l-8.4,3.2c-2.5-6.4-5-12.3-5.9-14
				c-0.9-1.5-3.5-5.8-22.9,2.7c-8.3-18.3-12.7-32.7-12.7-32.8c-0.1-0.2-0.2-0.4-0.3-0.6C566,541.7,562.4,534,561.6,530.5
				L561.6,530.5z M550.5,557.3c-5-1.2-11.1-3.2-16-5.1l0.2-5.2l0.8,0c0.8,0.4,1.5,0.9,2.1,1.3L550.5,557.3z M545.5,547.5l16.6,0.8
				c0.5,1,1,1.8,1.4,2.6c0.4,1.2,1.7,5.5,4.1,11.8l-5.5-4c-0.3-0.2-0.7-0.4-1.1-0.4L545.5,547.5z M529.1,662.6l0.7,0.8l-6.9,7
				c-0.5-0.5-0.9-0.9-1.4-1.4L529.1,662.6z M511.3,658.6c2.8-3,5.2-5.6,6.9-7.5l6.3,6.6l-7.6,6.5C515,662.3,513.1,660.4,511.3,658.6
				L511.3,658.6z M506,653.2l7.8-6.8l0.4,0.4c-1.6,1.8-4.1,4.5-6.9,7.6C506.8,654,506.4,653.6,506,653.2L506,653.2z M512.1,676.2
				l-6,2.3c-0.6,0.2-1,0.6-1.3,1.2c0,0-1,1.7-2.5,2.1c-0.8,0.2-1.7,0-2.7-0.6c-1.6-1-4.1-2.5-6.7-4.2c1.1-1.3,2.2-2.4,3.3-3.4
				c2.2-2,4.6-4.2,6.9-6.5C506.2,670.2,509.2,673.2,512.1,676.2L512.1,676.2z"/>
			<path id="XMLID_27_" fill-rule="evenodd" clip-rule="evenodd" fill="#C8C9C9" d="M922.2,645.4c-28.6,60.3-100.9,86-161.1,57.5
				c-60.3-28.6-86-100.8-57.5-161.1c28.6-60.3,100.8-86.1,161.1-57.5h0C925,512.8,950.7,585.1,922.2,645.4z"/>
			<polygon id="XMLID_365_" fill-rule="evenodd" clip-rule="evenodd" fill="#8DAE3E" points="735.8,570.9 771.8,647.9 896.7,568.5 
				873.2,523.3 848.5,532.2 			"/>
			<path id="XMLID_367_" fill-rule="evenodd" clip-rule="evenodd" fill="#FFFFFF" d="M933.8,592.1c-2.2-0.3-4.3-0.6-6.2-0.9
				c-3.1-0.5-5.7-0.9-7.9-1.1c-8.6-1-14.8,1-18.9,3.3c-1.2-5.5-2.8-9.9-4.2-13.2c10.4-5.5,21.7-10.8,33.6-16
				c-1.5-5.9-3.4-11.6-5.7-17.2c-9.5,4.1-18.7,8.3-27.4,12.7L879.4,524c6.5-3.7,14-8,22-12.8c-2.4-2.5-4.9-5-7.5-7.4
				c-6.1,3.6-11.9,7-17.1,10l-5.5-26.1c-2.2-1.2-4.5-2.4-6.8-3.5h0c-1.6-0.7-3.2-1.5-4.8-2.1l7.7,36.8c-5.9,3.2-10.6,5.6-13.7,6.8
				l-6.3,2.1l-8.4-47.1l9.6-2.7c-6.8-2.1-13.6-3.6-20.5-4.5l0.9,1.9l-5.1,1.5l-18.2,5c-0.4-3-0.8-6-1.2-9c-2.6,0.2-5.2,0.4-7.9,0.8
				c0.5,3.5,0.9,6.9,1.3,10.3l0,0l-63.9,17.5c-9.8,8.3-18.3,18.3-25.2,29.7c2.4,8.3,6.5,20,12.9,34l0,0l-20.5,2.2
				c-0.6-4.1-1.4-10.2-1.9-16.7c-5.5,14.4-8,29.3-7.8,44l20.4,49.6c0.9,2.1,3,3.3,5.2,3.1c0.5,0,1-0.2,1.4-0.4
				c2.6-1.1,3.8-4,2.8-6.6l-25.6-62.3l30.7-3.4c2.7,5.3,5.7,10.9,9.1,16.6c17,28.9,21.6,49.6,22.7,57.1
				c-14.9,8.9-27.8,15.9-39.2,21.7c7.1,8.7,15.5,16.5,25.1,23l-5.1-13.1c11.9-6.4,25.3-14.1,40.6-23.5l12.1,30l-27.5,17.7
				c3.9,1.7,7.8,3.2,11.8,4.4l19.5-12.6l7.1,17.8c3.7,0.3,7.4,0.4,11.1,0.4l-1.6-4.1l18.8-8.2c2.6-1.1,3.7-4.1,2.6-6.7
				c-1.1-2.6-4.1-3.7-6.7-2.6l-18.6,8.1l-20-49.7c13-8.2,27.3-17.5,43.2-28.4l20.1,38.3l8.8,39.1l0,0.2l0.8,3.7
				c6.7-2.9,13.1-6.5,19.1-10.6l-11,0.5l-8-35.7c0-0.2-0.1-0.4-0.2-0.6l39-14.6c2.4,8.3,5.1,16.9,7.6,24.8c2.6-3.3,5-6.8,7.3-10.5
				c-6.1-19.3-12.2-40.5-12.8-49.3c-0.1-1.7-0.3-3.3-0.4-4.9c1.6-1.6,6.7-5.5,16.2-4.3l0,0c2.1,0.2,4.7,0.6,7.7,1.1
				c2.2,0.3,4.7,0.7,7.3,1.1C933.8,598.1,933.8,595.1,933.8,592.1L933.8,592.1z M870.5,528.9l17.5,35.4c-11,5.9-21.1,11.9-29.7,18
				c-33.2,23.8-60.5,42-83.4,56.3c-2.7-11.7-8.9-31.3-23.6-56.3c-2.1-3.6-4-7-5.9-10.4l111.7-36.6c0.1,0,0.2-0.1,0.3-0.1
				C860.5,534.1,865,531.8,870.5,528.9L870.5,528.9z M897.8,633.3l-40.9,15.3l-16.6-31.5c9-6.2,18.5-12.9,28.5-20.1
				c5.6-4,11.9-8,18.7-11.9c2,4.9,4.3,12.8,5.1,23.8C893,614.1,895.1,623.1,897.8,633.3L897.8,633.3z M811.3,513
				c-0.8-1.8-2-5.2-2.7-11c-0.5-3.9-1-8-1.5-12.3l19.3-5.3l5.3-1.5l4.2,23.6L811.3,513z M729.1,534.4c-4-11.8-5.4-19-5.5-19.1
				c-0.1-0.4-0.2-0.8-0.3-1.2c-0.1-0.4-0.3-0.9-0.4-1.3l76.4-20.9c0.5,3.8,1,7.6,1.4,11.2c0.7,5.5,1.8,9.4,2.8,12l-17.1,4.5
				L729.1,534.4z M788.4,527.2l47.6-12.6l3.7,15.8l-99,32.4c-3.7-7.7-6.7-14.7-9-20.9L788.4,527.2z"/>
			<path id="XMLID_374_" fill-rule="evenodd" clip-rule="evenodd" fill="#E41E26" d="M831.3,543.3c0.3,11-19.4,40.6-19.4,40.6
				s-20.1-28.6-20.3-39.6c-0.3-11,8.4-20.1,19.4-20.3C821.9,523.6,831,532.3,831.3,543.3L831.3,543.3z M799.8,542.7
				c0-6.4,5.2-11.5,11.5-11.5c6.4,0,11.5,5.2,11.5,11.5c0,6.4-5.2,11.5-11.5,11.5C805,554.2,799.8,549,799.8,542.7L799.8,542.7z"/>
		</g>
		<rect id="XMLID_376_" x="831.8" y="211.3" fill-rule="evenodd" clip-rule="evenodd" fill="#F4B1B2" width="99.2" height="151.2"/>
		<path id="XMLID_377_" fill-rule="evenodd" clip-rule="evenodd" fill="#E8546A" d="M829.9,211.3h103.1c1.3,0,2.4-1.1,2.4-2.4v-5.7
			c0-1.3-1.1-2.4-2.4-2.4H829.9c-1.3,0-2.4,1.1-2.4,2.4v5.7C827.5,210.3,828.6,211.3,829.9,211.3L829.9,211.3z"/>
		<path id="XMLID_378_" fill-rule="evenodd" clip-rule="evenodd" fill="#E8546A" d="M829.9,362.3h103.1c1.3,0,2.4-1.1,2.4-2.4v-5.7
			c0-1.3-1.1-2.4-2.4-2.4H829.9c-1.3,0-2.4,1.1-2.4,2.4v5.7C827.5,361.3,828.6,362.3,829.9,362.3L829.9,362.3z"/>
		
			<rect id="XMLID_379_" x="742.4" y="312.1" fill-rule="evenodd" clip-rule="evenodd" fill="#EBBC94" stroke="#707F87" stroke-width="0.2268" stroke-miterlimit="10" width="50.4" height="50.5"/>
		<rect id="XMLID_380_" x="739.9" y="304.4" fill-rule="evenodd" clip-rule="evenodd" fill="#E19356" width="55.5" height="7.9"/>
		<g id="XMLID_5_">
			<g id="XMLID_59_">
				<g id="XMLID_61_">
					<path id="XMLID_70_" fill="#EFCE92" d="M479.7,777.1c-0.9,3.5-1.4,7.2-1.4,11.1v29.7c0,15.3-12.5,27.6-27.9,27.4
						c-15.1-0.3-26.8-13.2-26.8-28.3v-29.6c0-23.4,6.8-46.3,19.5-65.9l4.5-7v-81.9l-50.3,77.6c-10.5,16.3-16.1,35.2-16.1,54.7V975
						h87.4c27.6-59.9,55.6-100.3,55.6-134.8v-63.1v-34.8C502.7,742.3,484.6,757.1,479.7,777.1z"/>
				</g>
			</g>
			<polygon id="XMLID_3_" fill="#EFCE92" points="468.6,975 495.2,1269.3 381.2,1269.3 381.2,975 			"/>
		</g>
		<g id="XMLID_6_">
			<g id="XMLID_49_">
				<path id="XMLID_50_" fill="#E2AC64" d="M855.6,791.4l32.9,63.4l-23.3,50.8l0,0c15.7,7.2,33.9,2.4,44.2-10.6l16.5,31.8l70.7-36.7
					l-70.3-135.4L855.6,791.4z"/>
				<polygon id="XMLID_60_" fill="#FAA21B" points="838.5,807.1 891.2,814.4 891.2,814.4 				"/>
				<path id="XMLID_8_" fill="#EFCE92" d="M1046.6,1011.4l-9.7-122.2c0-0.8,0.1-1.7,0.1-2.5c0.8-25.3-9.6-49.7-27.8-67.4L937,749.1
					L835.4,738c-0.7,0.7-1.2,1.9-1.7,3.5c-4.7,15.3,1.2,31.6,13.6,39l0,0l0,0l16.3,2.3l54.8,7.6l34.3,33.1
					c13.1,12.7,11.7,31.8-3.9,41.3c-6.7,4.1-14.5,4.8-21.3,2.6c-6.3-2-11.9-6.4-15.2-12.7l-18.8-36.2c-0.7-1.4-1.5-2.7-2.3-4l0,0
					l0,0c-12.7-19.4-38.3-26.4-59.4-15.5l4.1,7.9l65,125.2l0.2-0.1c22.9,43.5,60,114.1,59.2,114.5L1046.6,1011.4z"/>
			</g>
			<polygon id="XMLID_4_" fill="#EFCE92" points="960.3,1046.4 1015.6,1196.2 1139.1,1205.9 1046.6,1011.4 			"/>
		</g>
		<g id="XMLID_7_">
			<polygon id="XMLID_346_" fill-rule="evenodd" clip-rule="evenodd" fill="#5B5A59" points="873.1,783.7 906.5,770.9 880.9,714.5 
				847.4,731.9 			"/>
			<path id="XMLID_352_" fill-rule="evenodd" clip-rule="evenodd" fill="#141414" d="M699.1,642.2c26.8,62.3,99.1,91,161.3,64.2
				c62.3-26.8,91-99.1,64.2-161.3c-26.8-62.3-99-91-161.3-64.2C701,507.8,672.3,580,699.1,642.2L699.1,642.2z M753.2,457.6
				c75.2-32.4,162.4,2.3,194.7,77.5c32.4,75.2-2.3,162.4-77.4,194.7c-75.2,32.4-162.4-2.3-194.7-77.5
				C643.4,577.2,678.1,490,753.2,457.6L753.2,457.6z"/>
			<path id="XMLID_355_" fill-rule="evenodd" clip-rule="evenodd" fill="#595757" d="M867.2,478.9c-63.2-30-139.1-2.9-169,60.3
				c-30,63.2-2.9,139.1,60.3,169c63.2,30,139,2.9,169-60.3C957.5,584.7,930.4,508.8,867.2,478.9z M922.2,645.4
				c-28.6,60.3-100.9,86-161.1,57.5c-60.3-28.6-86-100.8-57.5-161.1c28.6-60.3,100.8-86.1,161.1-57.5h0
				C925,512.8,950.7,585.1,922.2,645.4z"/>
			<path id="XMLID_357_" fill-rule="evenodd" clip-rule="evenodd" fill="#141414" d="M985,986.3c13.4-5.9,19.9-20.7,14.5-33
				l-92-199.3l-48.6,21.2l92,199.3C956.3,986.9,971.6,992.1,985,986.3L985,986.3z"/>
			<polygon id="XMLID_364_" fill-rule="evenodd" clip-rule="evenodd" fill="#3E3938" points="904.8,747.9 856.2,769.1 859,775.1 
				907.5,753.9 			"/>
		</g>
		<path id="XMLID_14_" fill="#EFCE92" d="M956.2,858.2c-2,2.5-4.5,4.7-7.5,6.5c-6.7,4.1-14.5,4.8-21.3,2.6
			c-6.3-2-11.9-6.4-15.2-12.7l-18.8-36.2c-0.7-1.4-1.5-2.7-2.3-4l0,0l0,0c-12.7-19.4-38.3-26.4-59.4-15.5l4.1,7.9l65,125.2l0.2-0.1
			c22.9,43.5,60,114.1,59.2,114.5l86.3-35l-5.1-64.4C1010.9,919.5,982.2,890.5,956.2,858.2z"/>
	</g>
</g>
</svg>
